<svg xmlns="http://www.w3.org/2000/svg" width="800" height="300" viewBox="0 0 800 300">
  <defs>
    <style>
      @import url('https://fonts.googleapis.com/css2?family=JetBrains+Mono:wght@400;700&amp;display=swap');
      text { font-family: 'JetBrains Mono', 'SF Mono', 'Menlo', monospace; }
    </style>
  </defs>

  <rect width="800" height="300" rx="8" fill="#282828"/>
  <rect width="800" height="28" rx="8" fill="#1d2021"/>
  <rect y="20" width="800" height="8" fill="#1d2021"/>
  <circle cx="18" cy="14" r="5" fill="#cc241d"/>
  <circle cx="36" cy="14" r="5" fill="#d79921"/>
  <circle cx="54" cy="14" r="5" fill="#98971a"/>

  <!-- 7-Axis Signal Bars -->
  <text x="80" y="70" fill="#8ec07c" font-size="13" font-weight="700">7-Axis Signal</text>

  <!-- Axis labels -->
  <text x="68" y="102" fill="#928374" font-size="11" text-anchor="end">P</text>
  <text x="68" y="127" fill="#928374" font-size="11" text-anchor="end">Q</text>
  <text x="68" y="152" fill="#928374" font-size="11" text-anchor="end">S</text>
  <text x="68" y="177" fill="#928374" font-size="11" text-anchor="end">D</text>
  <text x="68" y="202" fill="#928374" font-size="11" text-anchor="end">B</text>
  <text x="68" y="227" fill="#928374" font-size="11" text-anchor="end">Dt</text>
  <text x="68" y="252" fill="#928374" font-size="11" text-anchor="end">I</text>

  <!-- Background bars -->
  <rect x="80" y="90" width="320" height="14" rx="2" fill="#3c3836"/>
  <rect x="80" y="115" width="320" height="14" rx="2" fill="#3c3836"/>
  <rect x="80" y="140" width="320" height="14" rx="2" fill="#3c3836"/>
  <rect x="80" y="165" width="320" height="14" rx="2" fill="#3c3836"/>
  <rect x="80" y="190" width="320" height="14" rx="2" fill="#3c3836"/>
  <rect x="80" y="215" width="320" height="14" rx="2" fill="#3c3836"/>
  <rect x="80" y="240" width="320" height="14" rx="2" fill="#3c3836"/>

  <!-- Signal bars -->
  <rect x="80" y="90" width="250" height="14" rx="2" fill="#b8bb26" opacity="0.85"/>
  <rect x="80" y="115" width="210" height="14" rx="2" fill="#b8bb26" opacity="0.85"/>
  <rect x="80" y="140" width="290" height="14" rx="2" fill="#d3869b" opacity="0.85"/>
  <rect x="80" y="165" width="260" height="14" rx="2" fill="#d3869b" opacity="0.85"/>
  <rect x="80" y="190" width="190" height="14" rx="2" fill="#83a598" opacity="0.85"/>
  <rect x="80" y="215" width="240" height="14" rx="2" fill="#83a598" opacity="0.85"/>
  <rect x="80" y="240" width="140" height="14" rx="2" fill="#fabd2f" opacity="0.85"/>

  <!-- Right side: axis full names -->
  <text x="480" y="102" fill="#b8bb26" font-size="11">Production</text>
  <text x="480" y="127" fill="#b8bb26" font-size="11">Quality</text>
  <text x="480" y="152" fill="#d3869b" font-size="11">Survival</text>
  <text x="480" y="177" fill="#d3869b" font-size="11">Design</text>
  <text x="480" y="202" fill="#83a598" font-size="11">Bus Factor</text>
  <text x="480" y="227" fill="#83a598" font-size="11">Debt Cleanup</text>
  <text x="480" y="252" fill="#fabd2f" font-size="11">Indispensability</text>

  <!-- Signal values -->
  <text x="620" y="102" fill="#665c54" font-size="11">78</text>
  <text x="620" y="127" fill="#665c54" font-size="11">66</text>
  <text x="620" y="152" fill="#665c54" font-size="11">91</text>
  <text x="620" y="177" fill="#665c54" font-size="11">81</text>
  <text x="620" y="202" fill="#665c54" font-size="11">59</text>
  <text x="620" y="227" fill="#665c54" font-size="11">75</text>
  <text x="620" y="252" fill="#665c54" font-size="11">44</text>

  <!-- Impact -->
  <text x="720" y="170" text-anchor="middle" fill="#fabd2f" font-size="36" font-weight="700">71</text>
  <text x="720" y="190" text-anchor="middle" fill="#665c54" font-size="11">Total</text>

  <text x="30" y="282" fill="#8ec07c" font-size="11">$ eis analyze --author engineer-a</text>
</svg>