<svg xmlns="http://www.w3.org/2000/svg" width="800" height="300" viewBox="0 0 800 300">
  <defs>
    <style>
      @import url('https://fonts.googleapis.com/css2?family=JetBrains+Mono:wght@400;700&amp;display=swap');
      text { font-family: 'JetBrains Mono', 'SF Mono', 'Menlo', monospace; }
    </style>
  </defs>

  <rect width="800" height="300" rx="8" fill="#282828"/>
  <rect width="800" height="28" rx="8" fill="#1d2021"/>
  <rect y="20" width="800" height="8" fill="#1d2021"/>
  <circle cx="18" cy="14" r="5" fill="#cc241d"/>
  <circle cx="36" cy="14" r="5" fill="#d79921"/>
  <circle cx="54" cy="14" r="5" fill="#98971a"/>

  <!-- Same engineer icon (center top) -->
  <circle cx="400" cy="65" r="14" fill="#ebdbb2" opacity="0.3"/>
  <circle cx="400" cy="65" r="8" fill="#ebdbb2" opacity="0.6"/>
  <text x="400" y="45" text-anchor="middle" fill="#ebdbb2" font-size="11">Same Engineer</text>

  <!-- Lines branching to three repos -->
  <line x1="400" y1="79" x2="160" y2="120" stroke="#665c54" stroke-width="1.5" stroke-dasharray="4"/>
  <line x1="400" y1="79" x2="400" y2="120" stroke="#665c54" stroke-width="1.5" stroke-dasharray="4"/>
  <line x1="400" y1="79" x2="640" y2="120" stroke="#665c54" stroke-width="1.5" stroke-dasharray="4"/>

  <!-- Repo A (left) -->
  <rect x="60" y="120" width="200" height="120" rx="6" fill="#1d2021"/>
  <text x="160" y="145" text-anchor="middle" fill="#8ec07c" font-size="12" font-weight="700">Repo A</text>
  <text x="160" y="162" text-anchor="middle" fill="#665c54" font-size="10">backend-api</text>
  <!-- Score bar -->
  <rect x="85" y="175" width="150" height="14" rx="3" fill="#3c3836"/>
  <rect x="85" y="175" width="117" height="14" rx="3" fill="#b8bb26" opacity="0.7"/>
  <text x="210" y="187" fill="#b8bb26" font-size="14" font-weight="700">78</text>
  <!-- Mini axis bars -->
  <rect x="85" y="200" width="55" height="5" rx="2" fill="#b8bb26" opacity="0.5"/>
  <rect x="85" y="208" width="70" height="5" rx="2" fill="#d3869b" opacity="0.5"/>
  <rect x="85" y="216" width="40" height="5" rx="2" fill="#83a598" opacity="0.5"/>

  <!-- Repo B (center) -->
  <rect x="300" y="120" width="200" height="120" rx="6" fill="#1d2021"/>
  <text x="400" y="145" text-anchor="middle" fill="#8ec07c" font-size="12" font-weight="700">Repo B</text>
  <text x="400" y="162" text-anchor="middle" fill="#665c54" font-size="10">frontend-app</text>
  <!-- Score bar -->
  <rect x="325" y="175" width="150" height="14" rx="3" fill="#3c3836"/>
  <rect x="325" y="175" width="63" height="14" rx="3" fill="#fabd2f" opacity="0.7"/>
  <text x="450" y="187" fill="#fabd2f" font-size="14" font-weight="700">42</text>
  <!-- Mini axis bars -->
  <rect x="325" y="200" width="30" height="5" rx="2" fill="#b8bb26" opacity="0.5"/>
  <rect x="325" y="208" width="25" height="5" rx="2" fill="#d3869b" opacity="0.5"/>
  <rect x="325" y="216" width="50" height="5" rx="2" fill="#83a598" opacity="0.5"/>

  <!-- Repo C (right) -->
  <rect x="540" y="120" width="200" height="120" rx="6" fill="#1d2021"/>
  <text x="640" y="145" text-anchor="middle" fill="#8ec07c" font-size="12" font-weight="700">Repo C</text>
  <text x="640" y="162" text-anchor="middle" fill="#665c54" font-size="10">infra-tools</text>
  <!-- Score bar -->
  <rect x="565" y="175" width="150" height="14" rx="3" fill="#3c3836"/>
  <rect x="565" y="175" width="137" height="14" rx="3" fill="#d3869b" opacity="0.7"/>
  <text x="710" y="187" fill="#d3869b" font-size="14" font-weight="700">91</text>
  <!-- Mini axis bars -->
  <rect x="565" y="200" width="65" height="5" rx="2" fill="#b8bb26" opacity="0.5"/>
  <rect x="565" y="208" width="80" height="5" rx="2" fill="#d3869b" opacity="0.5"/>
  <rect x="565" y="216" width="55" height="5" rx="2" fill="#83a598" opacity="0.5"/>

  <!-- Formula -->
  <text x="400" y="270" text-anchor="middle" fill="#d3869b" font-size="14" font-weight="700">Score = f(engineer, context)</text>
</svg>