<svg xmlns="http://www.w3.org/2000/svg" width="720" height="540" viewBox="0 0 720 540">
  <defs>
    <style>
      @import url('https://fonts.googleapis.com/css2?family=JetBrains+Mono:wght@400;700&amp;family=Noto+Sans+JP:wght@400;700;800&amp;display=swap');
      .mono { font-family: 'JetBrains Mono', 'SF Mono', 'Menlo', monospace; }
      .jp   { font-family: 'Noto Sans JP', 'Hiragino Kaku Gothic ProN', 'Yu Gothic', -apple-system, 'Segoe UI', sans-serif; }
    </style>
    <linearGradient id="culture-area" x1="0%" y1="0%" x2="0%" y2="100%">
      <stop offset="0%" stop-color="#d3869b" stop-opacity="0.35"/>
      <stop offset="100%" stop-color="#d3869b" stop-opacity="0.05"/>
    </linearGradient>
    <linearGradient id="reflex-bg" x1="0%" y1="0%" x2="0%" y2="100%">
      <stop offset="0%" stop-color="#b8bb26" stop-opacity="0.15"/>
      <stop offset="100%" stop-color="#b8bb26" stop-opacity="0.04"/>
    </linearGradient>
  </defs>

  <rect width="720" height="540" rx="12" fill="#1d2021"/>
  <rect x="0" y="0" width="4" height="540" rx="2" fill="#8ec07c"/>
  <text x="696" y="24" text-anchor="end" class="mono" fill="#504945" font-size="10">Culture Mechanism · ch7</text>

  <text x="360" y="46" text-anchor="middle" class="jp" fill="#ebdbb2" font-size="22" font-weight="800" letter-spacing="1.5">文化 = 介入の時間積分</text>
  <text x="360" y="68" text-anchor="middle" class="jp" fill="#928374" font-size="12">個別の介入が蓄積して、意識的な選択から反射神経へ変わる</text>

  <!-- Chart frame -->
  <!-- Plot area: x=80-660 y=110-400 -->
  <rect x="80" y="110" width="580" height="290" fill="none" stroke="#3c3836" stroke-width="1"/>

  <!-- Reflex zone: y=110-200 (green tint) -->
  <rect x="80" y="110" width="580" height="90" fill="url(#reflex-bg)"/>
  <line x1="80" y1="200" x2="660" y2="200" stroke="#b8bb26" stroke-width="1.5" stroke-dasharray="5 4"/>
  <text x="668" y="204" class="jp" fill="#b8bb26" font-size="11" font-weight="700">Level 4</text>
  <text x="668" y="216" class="mono" fill="#7c6f64" font-size="9">reflex threshold</text>

  <!-- Reflex zone label -->
  <text x="90" y="130" class="jp" fill="#b8bb26" font-size="12" font-weight="800">文化 = 組織の反射神経</text>
  <text x="90" y="148" class="jp" fill="#7c6f64" font-size="10">語彙を意識せず使う領域。誰が辞めても構造が続く</text>

  <!-- Culture integral curve (cumulative) -->
  <path d="M 80 380
           Q 180 372, 240 355
           Q 320 335, 380 290
           Q 440 240, 500 200
           Q 560 170, 620 140
           L 660 130"
        fill="none" stroke="#d3869b" stroke-width="3"/>

  <!-- Shaded area below curve -->
  <path d="M 80 380
           Q 180 372, 240 355
           Q 320 335, 380 290
           Q 440 240, 500 200
           Q 560 170, 620 140
           L 660 130
           L 660 400
           L 80 400 Z"
        fill="url(#culture-area)"/>

  <!-- Curve label -->
  <text x="340" y="300" class="jp" fill="#d3869b" font-size="12" font-weight="800">文化深度（時間積分）</text>

  <!-- X axis labels -->
  <line x1="80" y1="400" x2="660" y2="400" stroke="#928374" stroke-width="1.5"/>
  <text x="80" y="418" text-anchor="middle" class="mono" fill="#7c6f64" font-size="10">M0</text>
  <text x="225" y="418" text-anchor="middle" class="mono" fill="#7c6f64" font-size="10">M3</text>
  <text x="370" y="418" text-anchor="middle" class="mono" fill="#7c6f64" font-size="10">M6</text>
  <text x="515" y="418" text-anchor="middle" class="mono" fill="#7c6f64" font-size="10">M9</text>
  <text x="660" y="418" text-anchor="middle" class="mono" fill="#7c6f64" font-size="10">M12</text>

  <!-- Individual intervention events (ticks at bottom) -->
  <g stroke="#83a598" stroke-width="1.5">
    <line x1="100" y1="395" x2="100" y2="408"/>
    <line x1="135" y1="395" x2="135" y2="408"/>
    <line x1="165" y1="395" x2="165" y2="408"/>
    <line x1="195" y1="395" x2="195" y2="408"/>
    <line x1="230" y1="395" x2="230" y2="408"/>
    <line x1="260" y1="395" x2="260" y2="408"/>
    <line x1="295" y1="395" x2="295" y2="408"/>
    <line x1="320" y1="395" x2="320" y2="408"/>
    <line x1="355" y1="395" x2="355" y2="408"/>
    <line x1="390" y1="395" x2="390" y2="408"/>
    <line x1="420" y1="395" x2="420" y2="408"/>
    <line x1="450" y1="395" x2="450" y2="408"/>
    <line x1="485" y1="395" x2="485" y2="408"/>
    <line x1="515" y1="395" x2="515" y2="408"/>
    <line x1="545" y1="395" x2="545" y2="408"/>
    <line x1="580" y1="395" x2="580" y2="408"/>
    <line x1="610" y1="395" x2="610" y2="408"/>
    <line x1="640" y1="395" x2="640" y2="408"/>
  </g>

  <!-- Individual intervention label -->
  <text x="370" y="440" text-anchor="middle" class="jp" fill="#83a598" font-size="11" font-weight="700">個別の介入（1on1・ペアプロ・レビュー・組織変更）</text>
  <text x="370" y="456" text-anchor="middle" class="jp" fill="#7c6f64" font-size="10">= 第 6 章で扱った「操作」</text>

  <!-- Annotations -->
  <rect x="40" y="476" width="640" height="46" rx="8" fill="#1d2021" stroke="#504945" stroke-width="1"/>
  <text x="360" y="496" text-anchor="middle" class="jp" fill="#a89984" font-size="12">介入が積分されて初めて文化になる。積分されない（毎回リセットされる）なら、どれだけ正しい介入も消える</text>
  <text x="360" y="514" text-anchor="middle" class="jp" fill="#928374" font-size="10">Level 3（設計できる） から Level 4（勝手に回る） への臨界点 = 語彙が「個人の所有物」から「組織の反射神経」に変わる瞬間</text>
</svg>
