<svg xmlns="http://www.w3.org/2000/svg" version="1.1" viewBox="0.00 0.00 471.00 351.00" width="471.00" height="351.00">
<path fill="#060d24" d="
  M 471.00 0.00
  L 471.00 351.00
  L 0.00 351.00
  L 0.00 0.00
  L 471.00 0.00
  Z"
/>
<clipPath id="clipping-path-1">
<path d="
  M 213.92 28.65
  L 209.10 29.08
  C 206.69 28.77 204.33 28.69 202.00 28.85
  C 154.90 32.04 112.78 60.76 88.73 100.27
  C 69.65 131.62 62.83 170.48 71.36 206.22
  C 72.48 210.91 74.14 218.52 76.11 223.92
  C 79.89 234.25 84.12 243.19 88.80 250.72
  C 92.83 257.20 97.65 263.84 103.24 270.65
  C 117.54 288.03 135.36 301.11 155.42 310.58
  C 165.32 315.25 176.68 317.96 187.36 319.86
  C 190.79 320.47 195.05 320.88 200.13 321.10
  C 204.40 321.29 208.69 321.45 213.00 321.59
  C 222.00 322.52 230.67 322.41 239.00 321.26
  C 244.73 320.46 251.68 319.11 259.83 317.21
  C 267.00 315.53 276.62 311.68 281.69 309.44
  C 308.51 297.61 330.74 275.92 345.52 250.67
  C 345.63 250.48 345.58 250.25 345.41 250.12
  C 345.24 249.99 345.00 250.01 344.85 250.17
  C 342.06 253.20 339.67 255.79 337.69 257.94
  C 333.77 262.21 328.45 267.13 321.73 272.72
  C 318.30 275.56 313.91 278.58 308.55 281.79
  C 298.95 287.52 291.06 291.97 284.89 295.14
  L 298.79 284.28
  C 305.60 278.79 311.90 272.25 317.67 264.67
  L 323.51 257.69
  C 328.03 253.39 332.33 248.80 336.40 243.91
  C 346.92 231.28 354.07 217.21 357.85 201.68
  C 359.61 194.42 360.71 187.95 361.15 182.27
  C 362.76 161.16 358.47 141.47 348.27 123.20
  C 343.13 113.99 337.19 105.60 330.44 98.05
  L 322.71 89.13
  C 318.94 82.42 314.24 76.77 308.60 72.16
  C 302.36 67.07 295.72 62.37 288.69 58.08
  C 291.41 58.78 294.40 60.03 297.66 61.84
  C 309.83 68.60 320.90 75.50 330.71 84.74
  C 335.05 88.83 339.38 93.17 343.70 97.77
  C 344.13 98.24 344.91 97.86 344.82 97.23
  C 344.70 96.36 344.35 95.46 343.78 94.51
  C 334.83 79.85 323.09 67.00 308.56 55.95
  C 285.73 38.60 259.30 28.97 230.75 27.77
  C 224.11 27.49 218.50 27.78 213.92 28.65
  Z"/>
</clipPath>
<g stroke-width="5.00" fill="none" stroke-linecap="butt" clip-path="url(#clipping-path-1)">
<path stroke="#df8b40" vector-effect="non-scaling-stroke" d="
  M 288.69 58.08
  C 288.47 57.71 288.14 57.52 287.71 57.52"
/>
<path stroke="#90522a" vector-effect="non-scaling-stroke" d="
  M 287.71 57.52
  C 286.96 56.62 286.33 56.01 285.83 55.68
  C 281.14 52.65 274.17 48.36 264.94 42.83
  C 254.22 36.42 241.89 32.17 227.96 30.08
  C 222.15 29.21 217.47 28.73 213.92 28.65"
/>
<path stroke="#4f422f" vector-effect="non-scaling-stroke" d="
  M 322.71 89.13
  L 312.27 81.89"
/>
<path stroke="#df8b40" vector-effect="non-scaling-stroke" d="
  M 312.27 81.89
  C 312.34 82.24 312.14 82.13 311.66 81.58"
/>
<path stroke="#4f422f" vector-effect="non-scaling-stroke" d="
  M 287.71 57.52
  C 287.27 57.73 286.95 57.79 286.75 57.70
  C 284.76 56.77 282.65 56.57 280.42 57.10"
/>
<path stroke="#796a32" vector-effect="non-scaling-stroke" d="
  M 280.42 57.10
  C 269.15 52.87 257.44 50.31 245.27 49.40
  C 239.51 48.97 232.79 49.20 225.11 50.09
  C 215.63 51.20 207.72 52.88 201.39 55.14
  C 191.29 58.75 182.67 62.37 175.52 65.99
  C 168.51 69.54 161.92 73.85 155.76 78.91"
/>
<path stroke="#90522a" vector-effect="non-scaling-stroke" d="
  M 155.76 78.91
  C 154.15 79.92 152.30 81.44 150.22 83.47
  C 143.84 89.70 138.11 96.10 133.04 102.66
  C 129.11 107.75 125.77 113.06 123.04 118.57
  C 117.00 130.71 111.75 142.33 109.65 155.59
  C 109.10 159.01 108.21 162.34 107.88 166.36
  C 107.06 176.62 107.04 184.99 109.10 194.32
  C 110.30 199.75 110.98 202.76 111.14 203.37
  C 115.67 220.48 124.19 238.10 135.94 251.80
  C 140.59 257.22 145.48 262.41 150.63 267.37
  C 151.88 268.57 153.14 269.39 154.43 269.83"
/>
<path stroke="#796a32" vector-effect="non-scaling-stroke" d="
  M 154.43 269.83
  C 158.77 273.56 162.27 276.23 164.94 277.83
  C 168.56 280.00 175.15 283.47 184.71 288.25
  C 193.20 292.49 203.79 295.92 216.48 298.53
  C 220.31 299.32 225.07 299.74 230.76 299.77
  C 251.48 299.90 270.92 295.63 289.08 286.96"
/>
<path stroke="#4f422f" vector-effect="non-scaling-stroke" d="
  M 289.08 286.96
  C 291.97 286.69 295.21 285.79 298.79 284.28"
/>
<path stroke="#90522a" vector-effect="non-scaling-stroke" d="
  M 284.89 295.14
  C 275.89 301.67 267.78 306.64 260.56 310.07
  C 253.88 313.23 246.16 315.76 237.39 317.67
  C 230.53 319.16 222.87 319.75 215.52 320.48"
/>
<path stroke="#90522a" vector-effect="non-scaling-stroke" d="
  M 312.27 81.89
  C 311.82 82.40 311.96 82.94 312.71 83.53
  C 317.13 87.01 321.28 90.79 325.15 94.86
  C 326.46 96.25 328.23 97.31 330.44 98.05"
/>
<path stroke="#90522a" vector-effect="non-scaling-stroke" d="
  M 323.51 257.69
  C 319.70 259.93 316.26 262.73 313.17 266.10"
/>
<path stroke="#df8b40" vector-effect="non-scaling-stroke" d="
  M 313.17 266.10
  L 298.94 276.75"
/>
<path stroke="#752933" vector-effect="non-scaling-stroke" d="
  M 298.94 276.75
  C 291.80 281.00 285.72 283.22 277.63 285.92
  C 263.92 290.50 250.28 292.47 235.77 291.85"
/>
<path stroke="#90522a" vector-effect="non-scaling-stroke" d="
  M 235.77 291.85
  L 239.21 291.76
  C 239.40 291.76 239.44 291.50 239.27 291.43
  C 238.93 291.29 238.55 291.27 238.14 291.38
  C 238.19 291.37 238.23 291.37 238.25 291.37
  C 239.34 291.38 240.59 291.19 242.01 290.80
  C 245.00 289.97 249.10 288.95 254.31 287.73
  C 268.15 284.48 280.55 279.16 292.89 271.34
  C 308.10 261.71 320.19 249.15 329.15 233.65
  C 336.02 221.76 340.65 209.88 343.05 198.00
  C 346.14 182.69 346.07 166.50 342.84 149.41
  C 342.28 146.46 341.35 143.17 340.06 139.54
  C 336.68 130.07 333.42 121.76 328.17 114.35
  C 312.45 92.20 291.84 75.84 266.15 66.69
  C 258.04 63.80 252.65 62.08 249.99 61.54
  C 240.64 59.65 233.16 58.81 227.55 59.04
  C 218.98 59.38 209.05 61.46 197.77 65.29
  C 190.84 67.64 185.69 69.65 182.31 71.32
  C 179.58 72.67 175.09 75.22 168.85 78.95
  C 147.68 91.62 130.74 109.32 119.12 130.93
  C 115.28 138.09 112.31 145.98 110.83 153.76
  C 110.13 157.43 109.76 159.33 109.73 159.44
  C 109.27 161.15 109.00 163.05 108.92 165.16
  C 108.55 175.09 108.72 182.69 109.43 187.94
  C 111.28 201.57 115.53 214.08 122.18 225.47
  C 130.38 239.50 139.52 250.41 152.93 260.32
  C 166.17 270.10 180.14 278.40 195.55 283.39
  C 199.67 284.73 203.52 286.35 207.11 288.24
  C 207.41 288.40 207.72 288.52 208.05 288.61
  C 213.06 290.00 214.01 290.54 210.90 290.21"
/>
<path stroke="#752933" vector-effect="non-scaling-stroke" d="
  M 210.90 290.21
  C 202.95 289.88 196.85 289.27 192.61 288.38
  C 186.29 287.04 179.77 284.61 173.05 281.10
  C 171.58 280.33 168.51 278.40 163.84 275.32
  C 160.84 273.34 157.70 271.51 154.43 269.83"
/>
<path stroke="#100f3c" vector-effect="non-scaling-stroke" d="
  M 280.42 57.10
  L 290.46 62.49
  C 290.66 62.60 290.84 62.72 291.00 62.87
  C 297.69 68.86 304.64 74.53 311.84 79.89
  C 312.22 80.18 312.38 80.46 312.32 80.75
  C 312.26 81.05 312.04 81.33 311.66 81.58"
/>
<path stroke="#752933" vector-effect="non-scaling-stroke" d="
  M 311.66 81.58
  C 303.81 76.51 298.68 73.31 296.28 71.96
  C 291.10 69.05 284.15 66.09 275.44 63.08
  C 260.45 57.90 245.59 56.57 230.01 57.91
  C 228.30 58.06 225.29 58.02 220.99 57.81
  C 205.16 57.04 190.09 60.10 175.76 66.97
  C 172.92 68.34 166.25 72.32 155.76 78.91"
/>
<path stroke="#100f3c" vector-effect="non-scaling-stroke" d="
  M 289.08 286.96
  C 291.91 283.65 295.04 280.72 298.49 278.15
  C 298.63 278.04 298.74 277.89 298.81 277.73
  C 298.93 277.44 298.97 277.11 298.94 276.75"
/>
<path stroke="#4f422f" vector-effect="non-scaling-stroke" d="
  M 209.10 29.08
  C 197.76 31.19 188.60 33.37 181.62 35.61
  C 177.13 37.04 170.95 39.65 163.06 43.43
  C 158.25 45.74 153.43 48.61 148.62 52.03
  C 142.55 56.36 138.08 59.75 135.22 62.21
  C 113.51 80.88 95.92 106.16 88.36 133.55
  C 83.05 152.81 80.62 173.80 83.98 193.77
  C 86.03 205.95 87.41 213.16 88.10 215.39
  C 95.89 240.39 108.36 261.59 125.51 278.99
  C 130.64 284.20 138.00 290.35 147.59 297.43
  C 151.60 300.39 155.25 302.75 158.55 304.50
  C 163.01 306.87 166.88 308.82 170.16 310.33
  C 176.41 313.22 183.71 315.55 192.07 317.34
  C 199.28 318.89 204.57 319.89 207.93 320.34
  C 209.23 320.51 211.76 320.56 215.52 320.48"
/>
<path stroke="#df8b40" vector-effect="non-scaling-stroke" d="
  M 215.52 320.48
  L 213.00 321.59"
/>
<path stroke="#796a32" vector-effect="non-scaling-stroke" d="
  M 235.77 291.85
  C 232.34 291.95 228.90 291.98 225.45 291.94
  C 223.41 291.92 220.98 291.66 218.17 291.17
  C 215.74 290.74 213.31 290.42 210.90 290.21"
/>
<path stroke="#4f422f" vector-effect="non-scaling-stroke" d="
  M 317.67 264.67
  C 316.38 264.66 314.88 265.14 313.17 266.10"
/>
</g>
<g fill="#060d24">
<path d="
  M 280.42 57.10
  L 290.46 62.49
  C 290.66 62.60 290.84 62.72 291.00 62.87
  C 297.69 68.86 304.64 74.53 311.84 79.89
  C 312.22 80.18 312.38 80.46 312.32 80.75
  C 312.26 81.05 312.04 81.33 311.66 81.58
  C 303.81 76.51 298.68 73.31 296.28 71.96
  C 291.10 69.05 284.15 66.09 275.44 63.08
  C 260.45 57.90 245.59 56.57 230.01 57.91
  C 228.30 58.06 225.29 58.02 220.99 57.81
  C 205.16 57.04 190.09 60.10 175.76 66.97
  C 172.92 68.34 166.25 72.32 155.76 78.91
  C 161.92 73.85 168.51 69.54 175.52 65.99
  C 182.67 62.37 191.29 58.75 201.39 55.14
  C 207.72 52.88 215.63 51.20 225.11 50.09
  C 232.79 49.20 239.51 48.97 245.27 49.40
  C 257.44 50.31 269.15 52.87 280.42 57.10
  Z"
/>
<path d="
  M 210.90 290.21
  C 213.31 290.42 215.74 290.74 218.17 291.17
  C 220.98 291.66 223.41 291.92 225.45 291.94
  C 228.90 291.98 232.34 291.95 235.77 291.85
  C 250.28 292.47 263.92 290.50 277.63 285.92
  C 285.72 283.22 291.80 281.00 298.94 276.75
  C 298.97 277.11 298.93 277.44 298.81 277.73
  C 298.74 277.89 298.63 278.04 298.49 278.15
  C 295.04 280.72 291.91 283.65 289.08 286.96
  C 270.92 295.63 251.48 299.90 230.76 299.77
  C 225.07 299.74 220.31 299.32 216.48 298.53
  C 203.79 295.92 193.20 292.49 184.71 288.25
  C 175.15 283.47 168.56 280.00 164.94 277.83
  C 162.27 276.23 158.77 273.56 154.43 269.83
  C 157.70 271.51 160.84 273.34 163.84 275.32
  C 168.51 278.40 171.58 280.33 173.05 281.10
  C 179.77 284.61 186.29 287.04 192.61 288.38
  C 196.85 289.27 202.95 289.88 210.90 290.21
  Z"
/>
</g>
<g fill="#ecc840">
<path d="
  M 209.10 29.08
  L 213.92 28.65
  C 217.47 28.73 222.15 29.21 227.96 30.08
  C 241.89 32.17 254.22 36.42 264.94 42.83
  C 274.17 48.36 281.14 52.65 285.83 55.68
  C 286.33 56.01 286.96 56.62 287.71 57.52
  C 287.27 57.73 286.95 57.79 286.75 57.70
  C 284.76 56.77 282.65 56.57 280.42 57.10
  C 269.15 52.87 257.44 50.31 245.27 49.40
  C 239.51 48.97 232.79 49.20 225.11 50.09
  C 215.63 51.20 207.72 52.88 201.39 55.14
  C 191.29 58.75 182.67 62.37 175.52 65.99
  C 168.51 69.54 161.92 73.85 155.76 78.91
  C 154.15 79.92 152.30 81.44 150.22 83.47
  C 143.84 89.70 138.11 96.10 133.04 102.66
  C 129.11 107.75 125.77 113.06 123.04 118.57
  C 117.00 130.71 111.75 142.33 109.65 155.59
  C 109.10 159.01 108.21 162.34 107.88 166.36
  C 107.06 176.62 107.04 184.99 109.10 194.32
  C 110.30 199.75 110.98 202.76 111.14 203.37
  C 115.67 220.48 124.19 238.10 135.94 251.80
  C 140.59 257.22 145.48 262.41 150.63 267.37
  C 151.88 268.57 153.14 269.39 154.43 269.83
  C 158.77 273.56 162.27 276.23 164.94 277.83
  C 168.56 280.00 175.15 283.47 184.71 288.25
  C 193.20 292.49 203.79 295.92 216.48 298.53
  C 220.31 299.32 225.07 299.74 230.76 299.77
  C 251.48 299.90 270.92 295.63 289.08 286.96
  C 291.97 286.69 295.21 285.79 298.79 284.28
  L 284.89 295.14
  C 275.89 301.67 267.78 306.64 260.56 310.07
  C 253.88 313.23 246.16 315.76 237.39 317.67
  C 230.53 319.16 222.87 319.75 215.52 320.48
  C 211.76 320.56 209.23 320.51 207.93 320.34
  C 204.57 319.89 199.28 318.89 192.07 317.34
  C 183.71 315.55 176.41 313.22 170.16 310.33
  C 166.88 308.82 163.01 306.87 158.55 304.50
  C 155.25 302.75 151.60 300.39 147.59 297.43
  C 138.00 290.35 130.64 284.20 125.51 278.99
  C 108.36 261.59 95.89 240.39 88.10 215.39
  C 87.41 213.16 86.03 205.95 83.98 193.77
  C 80.62 173.80 83.05 152.81 88.36 133.55
  C 95.92 106.16 113.51 80.88 135.22 62.21
  C 138.08 59.75 142.55 56.36 148.62 52.03
  C 153.43 48.61 158.25 45.74 163.06 43.43
  C 170.95 39.65 177.13 37.04 181.62 35.61
  C 188.60 33.37 197.76 31.19 209.10 29.08
  Z"
/>
<path d="
  M 235.77 291.85
  C 232.34 291.95 228.90 291.98 225.45 291.94
  C 223.41 291.92 220.98 291.66 218.17 291.17
  C 215.74 290.74 213.31 290.42 210.90 290.21
  C 214.01 290.54 213.06 290.00 208.05 288.61
  C 207.72 288.52 207.41 288.40 207.11 288.24
  C 203.52 286.35 199.67 284.73 195.55 283.39
  C 180.14 278.40 166.17 270.10 152.93 260.32
  C 139.52 250.41 130.38 239.50 122.18 225.47
  C 115.53 214.08 111.28 201.57 109.43 187.94
  C 108.72 182.69 108.55 175.09 108.92 165.16
  C 109.00 163.05 109.27 161.15 109.73 159.44
  C 109.76 159.33 110.13 157.43 110.83 153.76
  C 112.31 145.98 115.28 138.09 119.12 130.93
  C 130.74 109.32 147.68 91.62 168.85 78.95
  C 175.09 75.22 179.58 72.67 182.31 71.32
  C 185.69 69.65 190.84 67.64 197.77 65.29
  C 209.05 61.46 218.98 59.38 227.55 59.04
  C 233.16 58.81 240.64 59.65 249.99 61.54
  C 252.65 62.08 258.04 63.80 266.15 66.69
  C 291.84 75.84 312.45 92.20 328.17 114.35
  C 333.42 121.76 336.68 130.07 340.06 139.54
  C 341.35 143.17 342.28 146.46 342.84 149.41
  C 346.07 166.50 346.14 182.69 343.05 198.00
  C 340.65 209.88 336.02 221.76 329.15 233.65
  C 320.19 249.15 308.10 261.71 292.89 271.34
  C 280.55 279.16 268.15 284.48 254.31 287.73
  C 249.10 288.95 245.00 289.97 242.01 290.80
  C 240.59 291.19 239.34 291.38 238.25 291.37
  C 238.23 291.37 238.19 291.37 238.14 291.38
  C 238.55 291.27 238.93 291.29 239.27 291.43
  C 239.44 291.50 239.40 291.76 239.21 291.76
  L 235.77 291.85
  Z"
/>
<path d="
  M 312.27 81.89
  L 322.71 89.13
  L 330.44 98.05
  C 328.23 97.31 326.46 96.25 325.15 94.86
  C 321.28 90.79 317.13 87.01 312.71 83.53
  C 311.96 82.94 311.82 82.40 312.27 81.89
  Z"
/>
<path d="
  M 323.51 257.69
  L 317.67 264.67
  C 316.38 264.66 314.88 265.14 313.17 266.10
  C 316.26 262.73 319.70 259.93 323.51 257.69
  Z"
/>
</g>
<g fill="#d04040">
<path d="
  M 288.69 58.08
  C 288.47 57.71 288.14 57.52 287.71 57.52
  C 286.96 56.62 286.33 56.01 285.83 55.68
  C 281.14 52.65 274.17 48.36 264.94 42.83
  C 254.22 36.42 241.89 32.17 227.96 30.08
  C 222.15 29.21 217.47 28.73 213.92 28.65
  C 218.50 27.78 224.11 27.49 230.75 27.77
  C 259.30 28.97 285.73 38.60 308.56 55.95
  C 323.09 67.00 334.83 79.85 343.78 94.51
  C 344.35 95.46 344.70 96.36 344.82 97.23
  C 344.91 97.86 344.13 98.24 343.70 97.77
  C 339.38 93.17 335.05 88.83 330.71 84.74
  C 320.90 75.50 309.83 68.60 297.66 61.84
  C 294.40 60.03 291.41 58.78 288.69 58.08
  Z"
/>
<path d="
  M 311.66 81.58
  C 312.14 82.13 312.34 82.24 312.27 81.89
  C 311.82 82.40 311.96 82.94 312.71 83.53
  C 317.13 87.01 321.28 90.79 325.15 94.86
  C 326.46 96.25 328.23 97.31 330.44 98.05
  C 337.19 105.60 343.13 113.99 348.27 123.20
  C 358.47 141.47 362.76 161.16 361.15 182.27
  C 360.71 187.95 359.61 194.42 357.85 201.68
  C 354.07 217.21 346.92 231.28 336.40 243.91
  C 332.33 248.80 328.03 253.39 323.51 257.69
  C 319.70 259.93 316.26 262.73 313.17 266.10
  L 298.94 276.75
  C 291.80 281.00 285.72 283.22 277.63 285.92
  C 263.92 290.50 250.28 292.47 235.77 291.85
  L 239.21 291.76
  C 239.40 291.76 239.44 291.50 239.27 291.43
  C 238.93 291.29 238.55 291.27 238.14 291.38
  C 238.19 291.37 238.23 291.37 238.25 291.37
  C 239.34 291.38 240.59 291.19 242.01 290.80
  C 245.00 289.97 249.10 288.95 254.31 287.73
  C 268.15 284.48 280.55 279.16 292.89 271.34
  C 308.10 261.71 320.19 249.15 329.15 233.65
  C 336.02 221.76 340.65 209.88 343.05 198.00
  C 346.14 182.69 346.07 166.50 342.84 149.41
  C 342.28 146.46 341.35 143.17 340.06 139.54
  C 336.68 130.07 333.42 121.76 328.17 114.35
  C 312.45 92.20 291.84 75.84 266.15 66.69
  C 258.04 63.80 252.65 62.08 249.99 61.54
  C 240.64 59.65 233.16 58.81 227.55 59.04
  C 218.98 59.38 209.05 61.46 197.77 65.29
  C 190.84 67.64 185.69 69.65 182.31 71.32
  C 179.58 72.67 175.09 75.22 168.85 78.95
  C 147.68 91.62 130.74 109.32 119.12 130.93
  C 115.28 138.09 112.31 145.98 110.83 153.76
  C 110.13 157.43 109.76 159.33 109.73 159.44
  C 109.27 161.15 109.00 163.05 108.92 165.16
  C 108.55 175.09 108.72 182.69 109.43 187.94
  C 111.28 201.57 115.53 214.08 122.18 225.47
  C 130.38 239.50 139.52 250.41 152.93 260.32
  C 166.17 270.10 180.14 278.40 195.55 283.39
  C 199.67 284.73 203.52 286.35 207.11 288.24
  C 207.41 288.40 207.72 288.52 208.05 288.61
  C 213.06 290.00 214.01 290.54 210.90 290.21
  C 202.95 289.88 196.85 289.27 192.61 288.38
  C 186.29 287.04 179.77 284.61 173.05 281.10
  C 171.58 280.33 168.51 278.40 163.84 275.32
  C 160.84 273.34 157.70 271.51 154.43 269.83
  C 153.14 269.39 151.88 268.57 150.63 267.37
  C 145.48 262.41 140.59 257.22 135.94 251.80
  C 124.19 238.10 115.67 220.48 111.14 203.37
  C 110.98 202.76 110.30 199.75 109.10 194.32
  C 107.04 184.99 107.06 176.62 107.88 166.36
  C 108.21 162.34 109.10 159.01 109.65 155.59
  C 111.75 142.33 117.00 130.71 123.04 118.57
  C 125.77 113.06 129.11 107.75 133.04 102.66
  C 138.11 96.10 143.84 89.70 150.22 83.47
  C 152.30 81.44 154.15 79.92 155.76 78.91
  C 166.25 72.32 172.92 68.34 175.76 66.97
  C 190.09 60.10 205.16 57.04 220.99 57.81
  C 225.29 58.02 228.30 58.06 230.01 57.91
  C 245.59 56.57 260.45 57.90 275.44 63.08
  C 284.15 66.09 291.10 69.05 296.28 71.96
  C 298.68 73.31 303.81 76.51 311.66 81.58
  Z"
/>
<path d="
  M 213.00 321.59
  L 215.52 320.48
  C 222.87 319.75 230.53 319.16 237.39 317.67
  C 246.16 315.76 253.88 313.23 260.56 310.07
  C 267.78 306.64 275.89 301.67 284.89 295.14
  C 291.06 291.97 298.95 287.52 308.55 281.79
  C 313.91 278.58 318.30 275.56 321.73 272.72
  C 328.45 267.13 333.77 262.21 337.69 257.94
  C 339.67 255.79 342.06 253.20 344.85 250.17
  C 345.00 250.01 345.24 249.99 345.41 250.12
  C 345.58 250.25 345.63 250.48 345.52 250.67
  C 330.74 275.92 308.51 297.61 281.69 309.44
  C 276.62 311.68 267.00 315.53 259.83 317.21
  C 251.68 319.11 244.73 320.46 239.00 321.26
  C 230.67 322.41 222.00 322.52 213.00 321.59
  Z"
/>
</g>
<g fill="#181050">
<path d="
  M 209.10 29.08
  C 197.76 31.19 188.60 33.37 181.62 35.61
  C 177.13 37.04 170.95 39.65 163.06 43.43
  C 158.25 45.74 153.43 48.61 148.62 52.03
  C 142.55 56.36 138.08 59.75 135.22 62.21
  C 113.51 80.88 95.92 106.16 88.36 133.55
  C 83.05 152.81 80.62 173.80 83.98 193.77
  C 86.03 205.95 87.41 213.16 88.10 215.39
  C 95.89 240.39 108.36 261.59 125.51 278.99
  C 130.64 284.20 138.00 290.35 147.59 297.43
  C 151.60 300.39 155.25 302.75 158.55 304.50
  C 163.01 306.87 166.88 308.82 170.16 310.33
  C 176.41 313.22 183.71 315.55 192.07 317.34
  C 199.28 318.89 204.57 319.89 207.93 320.34
  C 209.23 320.51 211.76 320.56 215.52 320.48
  L 213.00 321.59
  C 208.69 321.45 204.40 321.29 200.13 321.10
  C 195.05 320.88 190.79 320.47 187.36 319.86
  C 176.68 317.96 165.32 315.25 155.42 310.58
  C 135.36 301.11 117.54 288.03 103.24 270.65
  C 97.65 263.84 92.83 257.20 88.80 250.72
  C 84.12 243.19 79.89 234.25 76.11 223.92
  C 74.14 218.52 72.48 210.91 71.36 206.22
  C 62.83 170.48 69.65 131.62 88.73 100.27
  C 112.78 60.76 154.90 32.04 202.00 28.85
  C 204.33 28.69 206.69 28.77 209.10 29.08
  Z"
/>
<path d="
  M 287.71 57.52
  C 288.14 57.52 288.47 57.71 288.69 58.08
  C 295.72 62.37 302.36 67.07 308.60 72.16
  C 314.24 76.77 318.94 82.42 322.71 89.13
  L 312.27 81.89
  C 312.34 82.24 312.14 82.13 311.66 81.58
  C 312.04 81.33 312.26 81.05 312.32 80.75
  C 312.38 80.46 312.22 80.18 311.84 79.89
  C 304.64 74.53 297.69 68.86 291.00 62.87
  C 290.84 62.72 290.66 62.60 290.46 62.49
  L 280.42 57.10
  C 282.65 56.57 284.76 56.77 286.75 57.70
  C 286.95 57.79 287.27 57.73 287.71 57.52
  Z"
/>
<path d="
  M 317.67 264.67
  C 311.90 272.25 305.60 278.79 298.79 284.28
  C 295.21 285.79 291.97 286.69 289.08 286.96
  C 291.91 283.65 295.04 280.72 298.49 278.15
  C 298.63 278.04 298.74 277.89 298.81 277.73
  C 298.93 277.44 298.97 277.11 298.94 276.75
  L 313.17 266.10
  C 314.88 265.14 316.38 264.66 317.67 264.67
  Z"
/>
</g>
<clipPath id="clipping-path-2">
<path d="
  M 168.45 85.76
  C 160.96 91.58 155.66 97.73 149.84 104.31
  C 147.72 106.70 143.87 112.59 138.29 121.98
  C 131.74 133.01 127.29 145.26 124.95 158.74
  C 124.04 164.01 123.57 170.01 123.55 176.76
  C 123.49 196.15 128.32 214.14 138.03 230.71
  C 139.85 233.81 143.93 239.62 150.26 248.14
  C 162.63 265.71 183.52 276.05 204.48 278.34
  C 212.16 279.17 221.56 278.89 232.67 277.48
  C 237.53 276.87 242.84 275.56 248.59 273.57
  C 256.64 270.77 264.26 268.02 271.33 263.92
  C 273.40 262.87 274.81 262.08 275.55 261.55
  C 280.64 257.92 284.39 255.66 287.87 252.47
  C 295.70 245.31 301.44 238.77 305.07 232.84
  C 309.31 225.93 311.97 221.18 313.06 218.59
  C 317.57 207.87 320.47 197.53 321.77 187.56
  C 322.78 179.76 322.81 170.98 321.86 161.23
  C 321.40 156.55 319.96 151.69 318.63 147.04
  C 313.42 129.16 304.29 114.06 291.26 101.75
  C 285.77 96.56 278.62 91.25 269.80 85.82
  C 267.50 84.40 265.59 83.96 263.66 82.62
  C 262.71 81.97 261.17 81.19 259.03 80.30
  C 251.08 76.99 243.32 74.57 235.73 73.03
  C 212.48 68.32 188.34 72.52 168.45 85.76
  Z"/>
</clipPath>
<g stroke-width="5.00" fill="none" stroke-linecap="butt" clip-path="url(#clipping-path-2)">
<path stroke="#100f3c" vector-effect="non-scaling-stroke" d="
  M 318.63 147.04
  C 318.18 147.15 317.78 147.17 317.45 147.10
  C 317.10 147.03 316.85 146.77 316.69 146.32
  C 314.41 140.13 312.85 136.11 312.01 134.24
  C 308.22 125.80 302.95 117.62 296.19 109.71
  C 290.30 102.82 283.12 96.78 274.63 91.59
  C 265.32 85.90 256.76 81.91 248.96 79.63
  C 237.07 76.16 224.27 74.66 210.54 75.11
  C 195.08 75.63 181.95 79.23 169.27 86.83
  C 168.85 87.08 168.33 86.74 168.39 86.25
  L 168.45 85.76"
/>
<path stroke="#100f3c" vector-effect="non-scaling-stroke" d="
  M 271.33 263.92
  C 270.41 262.21 268.74 262.27 266.33 264.11
  C 266.20 264.21 266.06 264.28 265.90 264.32
  L 253.96 267.72"
/>
<path stroke="#4f422f" vector-effect="non-scaling-stroke" d="
  M 253.96 267.72
  C 262.61 264.24 269.88 260.50 275.76 256.50
  C 286.92 248.90 297.81 237.79 305.14 225.20
  C 309.73 217.31 312.40 212.48 313.16 210.69
  C 320.77 192.72 322.38 174.26 318.00 155.30
  C 317.36 152.53 316.34 149.35 314.95 145.75
  C 313.30 141.47 311.97 138.40 310.97 136.54
  C 305.87 127.03 299.83 118.41 292.84 110.68
  C 283.39 100.22 271.98 92.61 259.06 86.68
  C 248.45 81.81 236.53 79.12 223.30 78.61"
/>
<path stroke="#100f3c" vector-effect="non-scaling-stroke" d="
  M 223.30 78.61
  C 223.41 78.48 223.48 78.40 223.53 78.36
  C 223.83 78.09 223.63 77.59 223.23 77.61
  C 219.48 77.78 215.76 77.24 212.26 77.38
  C 190.91 78.20 170.24 87.92 155.53 103.15
  C 155.34 103.35 155.39 103.67 155.63 103.80
  L 156.05 104.03"
/>
<path stroke="#4f422f" vector-effect="non-scaling-stroke" d="
  M 156.05 104.03
  C 145.22 114.24 137.16 126.36 131.86 140.41
  C 128.03 150.58 126.01 161.11 125.81 172.00
  C 125.65 180.54 126.12 187.46 127.22 192.76
  C 132.23 216.95 144.31 236.84 163.46 252.43"
/>
<path stroke="#100f3c" vector-effect="non-scaling-stroke" d="
  M 163.46 252.43
  C 163.15 252.58 163.10 252.94 163.31 253.49
  C 163.41 253.78 163.59 254.03 163.83 254.21
  C 168.67 258.00 172.55 260.76 175.48 262.48
  C 178.41 264.19 182.27 265.82 187.06 267.35"
/>
<path stroke="#df8b40" vector-effect="non-scaling-stroke" d="
  M 187.06 267.35
  C 191.16 268.93 194.72 270.05 197.73 270.71
  C 200.62 271.34 204.30 271.77 208.79 272.01"
/>
<path stroke="#4f422f" vector-effect="non-scaling-stroke" d="
  M 208.79 272.01
  C 217.55 272.87 224.85 273.84 234.30 271.92
  C 234.51 271.88 234.72 271.86 234.93 271.85
  L 240.93 271.74"
/>
<path stroke="#100f3c" vector-effect="non-scaling-stroke" d="
  M 240.93 271.74
  C 239.63 271.83 238.39 272.14 237.20 272.68
  C 236.90 272.81 236.58 272.88 236.25 272.87
  C 234.25 272.85 232.67 273.64 230.86 273.32
  C 230.09 273.19 228.66 273.47 226.56 274.16
  C 225.17 274.61 223.55 274.59 221.69 274.08
  C 221.38 274.00 221.07 273.96 220.76 273.97
  C 216.05 274.08 211.56 274.23 207.27 274.40
  C 204.14 274.52 199.90 273.69 196.73 273.58
  C 194.53 273.51 191.95 272.99 188.98 272.02
  C 179.14 268.79 171.42 265.35 165.83 261.70
  C 161.42 258.82 156.23 254.30 150.26 248.14"
/>
<path stroke="#796a32" vector-effect="non-scaling-stroke" d="
  M 223.30 78.61
  C 212.79 78.02 202.65 79.46 192.90 82.93
  C 179.21 87.79 166.52 94.26 156.05 104.03"
/>
<path stroke="#752933" vector-effect="non-scaling-stroke" d="
  M 187.06 267.35
  L 180.50 262.92"
/>
<path stroke="#796a32" vector-effect="non-scaling-stroke" d="
  M 253.96 267.72
  C 249.99 269.45 245.65 270.79 240.93 271.74"
/>
<path stroke="#90522a" vector-effect="non-scaling-stroke" d="
  M 208.79 272.01
  C 209.02 271.99 209.26 271.96 209.51 271.91
  L 209.51 271.90
  C 208.64 271.93 207.92 271.88 207.34 271.77
  C 206.92 271.69 206.80 271.15 207.14 270.89
  C 207.97 270.28 209.01 270.03 210.26 270.12
  C 213.18 270.34 215.62 270.51 217.57 270.64
  C 219.34 270.75 221.77 270.56 224.88 270.07
  C 230.75 269.14 234.54 268.45 236.25 267.99
  C 247.12 265.06 256.26 261.03 263.65 255.90
  C 272.81 249.53 280.82 241.25 287.69 231.04
  C 297.53 216.43 303.14 199.34 304.51 179.78
  C 305.15 170.63 304.31 161.60 302.00 152.69
  C 299.35 142.54 295.56 133.23 290.62 124.78
  C 286.59 117.90 281.54 112.09 276.41 106.83
  C 265.94 96.10 253.46 88.50 238.99 84.05
  C 235.25 82.90 231.62 82.24 228.11 82.07
  C 225.70 81.95 222.00 81.64 217.02 81.14
  C 215.53 80.99 212.15 81.29 206.89 82.05
  C 206.76 82.07 206.66 82.20 206.68 82.33
  L 206.68 82.34
  C 206.69 82.43 206.77 82.50 206.87 82.49
  C 216.03 82.11 225.17 82.86 234.29 84.73
  C 237.71 85.43 240.34 86.82 243.62 87.90
  C 245.79 88.61 248.08 89.53 250.49 90.64
  C 264.20 96.97 275.49 106.45 284.37 119.10
  C 297.14 137.31 303.11 157.42 302.26 179.45
  C 301.93 187.96 300.14 195.94 298.18 203.23
  C 295.41 213.54 290.76 223.28 284.23 232.46
  C 271.01 251.07 253.43 262.75 231.49 267.51
  C 227.56 268.36 222.66 268.88 216.80 269.05
  C 208.89 269.28 203.96 269.29 202.00 269.08
  C 197.15 268.55 189.99 266.50 180.50 262.92"
/>
<path stroke="#796a32" vector-effect="non-scaling-stroke" d="
  M 180.50 262.92
  L 163.46 252.43"
/>
</g>
<g fill="#060d24">
<path d="
  M 318.63 147.04
  C 318.18 147.15 317.78 147.17 317.45 147.10
  C 317.10 147.03 316.85 146.77 316.69 146.32
  C 314.41 140.13 312.85 136.11 312.01 134.24
  C 308.22 125.80 302.95 117.62 296.19 109.71
  C 290.30 102.82 283.12 96.78 274.63 91.59
  C 265.32 85.90 256.76 81.91 248.96 79.63
  C 237.07 76.16 224.27 74.66 210.54 75.11
  C 195.08 75.63 181.95 79.23 169.27 86.83
  C 168.85 87.08 168.33 86.74 168.39 86.25
  L 168.45 85.76
  C 188.34 72.52 212.48 68.32 235.73 73.03
  C 243.32 74.57 251.08 76.99 259.03 80.30
  C 261.17 81.19 262.71 81.97 263.66 82.62
  C 265.59 83.96 267.50 84.40 269.80 85.82
  C 278.62 91.25 285.77 96.56 291.26 101.75
  C 304.29 114.06 313.42 129.16 318.63 147.04
  Z"
/>
<path d="
  M 223.30 78.61
  C 212.79 78.02 202.65 79.46 192.90 82.93
  C 179.21 87.79 166.52 94.26 156.05 104.03
  L 155.63 103.80
  C 155.39 103.67 155.34 103.35 155.53 103.15
  C 170.24 87.92 190.91 78.20 212.26 77.38
  C 215.76 77.24 219.48 77.78 223.23 77.61
  C 223.63 77.59 223.83 78.09 223.53 78.36
  C 223.48 78.40 223.41 78.48 223.30 78.61
  Z"
/>
<path d="
  M 240.93 271.74
  C 245.65 270.79 249.99 269.45 253.96 267.72
  L 265.90 264.32
  C 266.06 264.28 266.20 264.21 266.33 264.11
  C 268.74 262.27 270.41 262.21 271.33 263.92
  C 264.26 268.02 256.64 270.77 248.59 273.57
  C 242.84 275.56 237.53 276.87 232.67 277.48
  C 221.56 278.89 212.16 279.17 204.48 278.34
  C 183.52 276.05 162.63 265.71 150.26 248.14
  C 156.23 254.30 161.42 258.82 165.83 261.70
  C 171.42 265.35 179.14 268.79 188.98 272.02
  C 191.95 272.99 194.53 273.51 196.73 273.58
  C 199.90 273.69 204.14 274.52 207.27 274.40
  C 211.56 274.23 216.05 274.08 220.76 273.97
  C 221.07 273.96 221.38 274.00 221.69 274.08
  C 223.55 274.59 225.17 274.61 226.56 274.16
  C 228.66 273.47 230.09 273.19 230.86 273.32
  C 232.67 273.64 234.25 272.85 236.25 272.87
  C 236.58 272.88 236.90 272.81 237.20 272.68
  C 238.39 272.14 239.63 271.83 240.93 271.74
  Z"
/>
<path d="
  M 163.46 252.43
  L 180.50 262.92
  L 187.06 267.35
  C 182.27 265.82 178.41 264.19 175.48 262.48
  C 172.55 260.76 168.67 258.00 163.83 254.21
  C 163.59 254.03 163.41 253.78 163.31 253.49
  C 163.10 252.94 163.15 252.58 163.46 252.43
  Z"
/>
</g>
<path fill="#ecc840" d="
  M 223.30 78.61
  C 236.53 79.12 248.45 81.81 259.06 86.68
  C 271.98 92.61 283.39 100.22 292.84 110.68
  C 299.83 118.41 305.87 127.03 310.97 136.54
  C 311.97 138.40 313.30 141.47 314.95 145.75
  C 316.34 149.35 317.36 152.53 318.00 155.30
  C 322.38 174.26 320.77 192.72 313.16 210.69
  C 312.40 212.48 309.73 217.31 305.14 225.20
  C 297.81 237.79 286.92 248.90 275.76 256.50
  C 269.88 260.50 262.61 264.24 253.96 267.72
  C 249.99 269.45 245.65 270.79 240.93 271.74
  L 234.93 271.85
  C 234.72 271.86 234.51 271.88 234.30 271.92
  C 224.85 273.84 217.55 272.87 208.79 272.01
  C 209.02 271.99 209.26 271.96 209.51 271.91
  L 209.51 271.90
  C 208.64 271.93 207.92 271.88 207.34 271.77
  C 206.92 271.69 206.80 271.15 207.14 270.89
  C 207.97 270.28 209.01 270.03 210.26 270.12
  C 213.18 270.34 215.62 270.51 217.57 270.64
  C 219.34 270.75 221.77 270.56 224.88 270.07
  C 230.75 269.14 234.54 268.45 236.25 267.99
  C 247.12 265.06 256.26 261.03 263.65 255.90
  C 272.81 249.53 280.82 241.25 287.69 231.04
  C 297.53 216.43 303.14 199.34 304.51 179.78
  C 305.15 170.63 304.31 161.60 302.00 152.69
  C 299.35 142.54 295.56 133.23 290.62 124.78
  C 286.59 117.90 281.54 112.09 276.41 106.83
  C 265.94 96.10 253.46 88.50 238.99 84.05
  C 235.25 82.90 231.62 82.24 228.11 82.07
  C 225.70 81.95 222.00 81.64 217.02 81.14
  C 215.53 80.99 212.15 81.29 206.89 82.05
  C 206.76 82.07 206.66 82.20 206.68 82.33
  L 206.68 82.34
  C 206.69 82.43 206.77 82.50 206.87 82.49
  C 216.03 82.11 225.17 82.86 234.29 84.73
  C 237.71 85.43 240.34 86.82 243.62 87.90
  C 245.79 88.61 248.08 89.53 250.49 90.64
  C 264.20 96.97 275.49 106.45 284.37 119.10
  C 297.14 137.31 303.11 157.42 302.26 179.45
  C 301.93 187.96 300.14 195.94 298.18 203.23
  C 295.41 213.54 290.76 223.28 284.23 232.46
  C 271.01 251.07 253.43 262.75 231.49 267.51
  C 227.56 268.36 222.66 268.88 216.80 269.05
  C 208.89 269.28 203.96 269.29 202.00 269.08
  C 197.15 268.55 189.99 266.50 180.50 262.92
  L 163.46 252.43
  C 144.31 236.84 132.23 216.95 127.22 192.76
  C 126.12 187.46 125.65 180.54 125.81 172.00
  C 126.01 161.11 128.03 150.58 131.86 140.41
  C 137.16 126.36 145.22 114.24 156.05 104.03
  C 166.52 94.26 179.21 87.79 192.90 82.93
  C 202.65 79.46 212.79 78.02 223.30 78.61
  Z"
/>
<path fill="#d04040" d="
  M 208.79 272.01
  C 204.30 271.77 200.62 271.34 197.73 270.71
  C 194.72 270.05 191.16 268.93 187.06 267.35
  L 180.50 262.92
  C 189.99 266.50 197.15 268.55 202.00 269.08
  C 203.96 269.29 208.89 269.28 216.80 269.05
  C 222.66 268.88 227.56 268.36 231.49 267.51
  C 253.43 262.75 271.01 251.07 284.23 232.46
  C 290.76 223.28 295.41 213.54 298.18 203.23
  C 300.14 195.94 301.93 187.96 302.26 179.45
  C 303.11 157.42 297.14 137.31 284.37 119.10
  C 275.49 106.45 264.20 96.97 250.49 90.64
  C 248.08 89.53 245.79 88.61 243.62 87.90
  C 240.34 86.82 237.71 85.43 234.29 84.73
  C 225.17 82.86 216.03 82.11 206.87 82.49
  C 206.77 82.50 206.69 82.43 206.68 82.34
  L 206.68 82.33
  C 206.66 82.20 206.76 82.07 206.89 82.05
  C 212.15 81.29 215.53 80.99 217.02 81.14
  C 222.00 81.64 225.70 81.95 228.11 82.07
  C 231.62 82.24 235.25 82.90 238.99 84.05
  C 253.46 88.50 265.94 96.10 276.41 106.83
  C 281.54 112.09 286.59 117.90 290.62 124.78
  C 295.56 133.23 299.35 142.54 302.00 152.69
  C 304.31 161.60 305.15 170.63 304.51 179.78
  C 303.14 199.34 297.53 216.43 287.69 231.04
  C 280.82 241.25 272.81 249.53 263.65 255.90
  C 256.26 261.03 247.12 265.06 236.25 267.99
  C 234.54 268.45 230.75 269.14 224.88 270.07
  C 221.77 270.56 219.34 270.75 217.57 270.64
  C 215.62 270.51 213.18 270.34 210.26 270.12
  C 209.01 270.03 207.97 270.28 207.14 270.89
  C 206.80 271.15 206.92 271.69 207.34 271.77
  C 207.92 271.88 208.64 271.93 209.51 271.90
  L 209.51 271.91
  C 209.26 271.96 209.02 271.99 208.79 272.01
  Z"
/>
<path fill="#181050" d="
  M 318.63 147.04
  C 319.96 151.69 321.40 156.55 321.86 161.23
  C 322.81 170.98 322.78 179.76 321.77 187.56
  C 320.47 197.53 317.57 207.87 313.06 218.59
  C 311.97 221.18 309.31 225.93 305.07 232.84
  C 301.44 238.77 295.70 245.31 287.87 252.47
  C 284.39 255.66 280.64 257.92 275.55 261.55
  C 274.81 262.08 273.40 262.87 271.33 263.92
  C 270.41 262.21 268.74 262.27 266.33 264.11
  C 266.20 264.21 266.06 264.28 265.90 264.32
  L 253.96 267.72
  C 262.61 264.24 269.88 260.50 275.76 256.50
  C 286.92 248.90 297.81 237.79 305.14 225.20
  C 309.73 217.31 312.40 212.48 313.16 210.69
  C 320.77 192.72 322.38 174.26 318.00 155.30
  C 317.36 152.53 316.34 149.35 314.95 145.75
  C 313.30 141.47 311.97 138.40 310.97 136.54
  C 305.87 127.03 299.83 118.41 292.84 110.68
  C 283.39 100.22 271.98 92.61 259.06 86.68
  C 248.45 81.81 236.53 79.12 223.30 78.61
  C 223.41 78.48 223.48 78.40 223.53 78.36
  C 223.83 78.09 223.63 77.59 223.23 77.61
  C 219.48 77.78 215.76 77.24 212.26 77.38
  C 190.91 78.20 170.24 87.92 155.53 103.15
  C 155.34 103.35 155.39 103.67 155.63 103.80
  L 156.05 104.03
  C 145.22 114.24 137.16 126.36 131.86 140.41
  C 128.03 150.58 126.01 161.11 125.81 172.00
  C 125.65 180.54 126.12 187.46 127.22 192.76
  C 132.23 216.95 144.31 236.84 163.46 252.43
  C 163.15 252.58 163.10 252.94 163.31 253.49
  C 163.41 253.78 163.59 254.03 163.83 254.21
  C 168.67 258.00 172.55 260.76 175.48 262.48
  C 178.41 264.19 182.27 265.82 187.06 267.35
  C 191.16 268.93 194.72 270.05 197.73 270.71
  C 200.62 271.34 204.30 271.77 208.79 272.01
  C 217.55 272.87 224.85 273.84 234.30 271.92
  C 234.51 271.88 234.72 271.86 234.93 271.85
  L 240.93 271.74
  C 239.63 271.83 238.39 272.14 237.20 272.68
  C 236.90 272.81 236.58 272.88 236.25 272.87
  C 234.25 272.85 232.67 273.64 230.86 273.32
  C 230.09 273.19 228.66 273.47 226.56 274.16
  C 225.17 274.61 223.55 274.59 221.69 274.08
  C 221.38 274.00 221.07 273.96 220.76 273.97
  C 216.05 274.08 211.56 274.23 207.27 274.40
  C 204.14 274.52 199.90 273.69 196.73 273.58
  C 194.53 273.51 191.95 272.99 188.98 272.02
  C 179.14 268.79 171.42 265.35 165.83 261.70
  C 161.42 258.82 156.23 254.30 150.26 248.14
  C 143.93 239.62 139.85 233.81 138.03 230.71
  C 128.32 214.14 123.49 196.15 123.55 176.76
  C 123.57 170.01 124.04 164.01 124.95 158.74
  C 127.29 145.26 131.74 133.01 138.29 121.98
  C 143.87 112.59 147.72 106.70 149.84 104.31
  C 155.66 97.73 160.96 91.58 168.45 85.76
  L 168.39 86.25
  C 168.33 86.74 168.85 87.08 169.27 86.83
  C 181.95 79.23 195.08 75.63 210.54 75.11
  C 224.27 74.66 237.07 76.16 248.96 79.63
  C 256.76 81.91 265.32 85.90 274.63 91.59
  C 283.12 96.78 290.30 102.82 296.19 109.71
  C 302.95 117.62 308.22 125.80 312.01 134.24
  C 312.85 136.11 314.41 140.13 316.69 146.32
  C 316.85 146.77 317.10 147.03 317.45 147.10
  C 317.78 147.17 318.18 147.15 318.63 147.04
  Z"
/>
<clipPath id="clipping-path-3">
<path d="
  M 214.64 237.22
  C 228.08 240.70 245.22 236.03 255.80 227.63
  C 259.03 225.06 262.40 221.92 265.90 218.19
  C 271.68 212.05 275.20 204.42 278.18 196.36
  C 282.55 184.56 282.18 170.46 279.52 158.50
  C 275.81 141.77 266.52 129.12 251.65 120.55
  C 241.85 114.91 230.72 111.46 219.54 112.09
  C 217.53 112.20 215.56 112.28 213.63 112.33
  C 210.20 111.83 206.86 111.78 203.59 112.17
  C 182.78 114.70 166.45 126.81 156.97 145.27
  C 155.62 147.89 154.43 151.32 153.38 155.56
  C 152.06 160.89 151.29 164.45 151.08 166.24
  C 149.69 178.13 150.98 189.43 154.93 200.13
  C 157.39 206.78 162.20 213.16 166.77 218.23
  C 178.60 231.41 193.51 238.05 211.48 238.16
  C 212.73 238.17 213.79 237.85 214.64 237.22
  Z"/>
</clipPath>
<g stroke-width="5.00" fill="none" stroke-linecap="butt" clip-path="url(#clipping-path-3)">
<path stroke="#df8b40" vector-effect="non-scaling-stroke" d="
  M 213.63 112.33
  C 214.70 112.59 214.08 113.03 211.75 113.64"
/>
<path stroke="#752933" vector-effect="non-scaling-stroke" d="
  M 211.75 113.64
  C 205.17 115.13 199.34 117.59 194.27 121.01
  C 173.74 134.85 163.30 159.17 166.98 183.37
  C 168.98 196.51 175.28 209.38 184.31 219.44
  C 190.14 225.95 197.19 230.66 205.44 233.57
  C 208.68 234.72 211.95 235.82 215.26 236.87"
/>
<path stroke="#df8b40" vector-effect="non-scaling-stroke" d="
  M 215.26 236.87
  C 214.93 237.00 214.72 237.12 214.64 237.22"
/>
<path stroke="#100f3c" vector-effect="non-scaling-stroke" d="
  M 215.26 236.87
  C 215.58 237.10 215.99 237.15 216.50 237.03
  C 230.91 233.62 241.85 228.35 251.80 216.04
  C 273.13 189.66 270.53 148.19 244.11 125.95
  C 235.34 118.57 227.54 115.60 217.92 113.43
  C 216.08 113.01 214.02 113.08 211.75 113.64"
/>
</g>
<path fill="#060d24" d="
  M 215.26 236.87
  C 211.95 235.82 208.68 234.72 205.44 233.57
  C 197.19 230.66 190.14 225.95 184.31 219.44
  C 175.28 209.38 168.98 196.51 166.98 183.37
  C 163.30 159.17 173.74 134.85 194.27 121.01
  C 199.34 117.59 205.17 115.13 211.75 113.64
  C 214.02 113.08 216.08 113.01 217.92 113.43
  C 227.54 115.60 235.34 118.57 244.11 125.95
  C 270.53 148.19 273.13 189.66 251.80 216.04
  C 241.85 228.35 230.91 233.62 216.50 237.03
  C 215.99 237.15 215.58 237.10 215.26 236.87
  Z"
/>
<path fill="#d04040" d="
  M 213.63 112.33
  C 214.70 112.59 214.08 113.03 211.75 113.64
  C 205.17 115.13 199.34 117.59 194.27 121.01
  C 173.74 134.85 163.30 159.17 166.98 183.37
  C 168.98 196.51 175.28 209.38 184.31 219.44
  C 190.14 225.95 197.19 230.66 205.44 233.57
  C 208.68 234.72 211.95 235.82 215.26 236.87
  C 214.93 237.00 214.72 237.12 214.64 237.22
  C 213.79 237.85 212.73 238.17 211.48 238.16
  C 193.51 238.05 178.60 231.41 166.77 218.23
  C 162.20 213.16 157.39 206.78 154.93 200.13
  C 150.98 189.43 149.69 178.13 151.08 166.24
  C 151.29 164.45 152.06 160.89 153.38 155.56
  C 154.43 151.32 155.62 147.89 156.97 145.27
  C 166.45 126.81 182.78 114.70 203.59 112.17
  C 206.86 111.78 210.20 111.83 213.63 112.33
  Z"
/>
<path fill="#181050" d="
  M 214.64 237.22
  C 214.72 237.12 214.93 237.00 215.26 236.87
  C 215.58 237.10 215.99 237.15 216.50 237.03
  C 230.91 233.62 241.85 228.35 251.80 216.04
  C 273.13 189.66 270.53 148.19 244.11 125.95
  C 235.34 118.57 227.54 115.60 217.92 113.43
  C 216.08 113.01 214.02 113.08 211.75 113.64
  C 214.08 113.03 214.70 112.59 213.63 112.33
  C 215.56 112.28 217.53 112.20 219.54 112.09
  C 230.72 111.46 241.85 114.91 251.65 120.55
  C 266.52 129.12 275.81 141.77 279.52 158.50
  C 282.18 170.46 282.55 184.56 278.18 196.36
  C 275.20 204.42 271.68 212.05 265.90 218.19
  C 262.40 221.92 259.03 225.06 255.80 227.63
  C 245.22 236.03 228.08 240.70 214.64 237.22
  Z"
/>
</svg>