<svg xmlns="http://www.w3.org/2000/svg" width="900" height="480" viewBox="0 0 900 480">
  <defs>
    <style>
      text { font-family: -apple-system, 'Segoe UI', sans-serif; }
      .title { font-size: 18px; font-weight: 700; fill: #1a1a2e; }
      .axis-label { font-size: 11px; fill: #555; font-weight: 600; }
      .legend-text { font-size: 12px; fill: #333; }
      .grid-label { font-size: 9px; fill: #999; }
    </style>
  </defs>

  <!-- Background -->
  <rect width="900" height="480" rx="8" fill="#fafbfc"/>

  <!-- Title -->
  <text x="450" y="32" text-anchor="middle" class="title">Engineer Archetypes — 7-Axis Radar Profiles</text>

  <!-- === Chart 1: Architect === -->
  <g transform="translate(155,235)">
    <!-- Grid circles -->
    <circle cx="0" cy="0" r="110" fill="none" stroke="#e8e8e8" stroke-width="0.5"/>
    <circle cx="0" cy="0" r="82" fill="none" stroke="#e8e8e8" stroke-width="0.5"/>
    <circle cx="0" cy="0" r="55" fill="none" stroke="#e8e8e8" stroke-width="0.5"/>
    <circle cx="0" cy="0" r="27" fill="none" stroke="#e8e8e8" stroke-width="0.5"/>

    <!-- Axis lines (7 axes, 360/7 ≈ 51.4° apart) -->
    <!-- Prod: 90° (top) -->
    <line x1="0" y1="0" x2="0" y2="-110" stroke="#ddd" stroke-width="0.5"/>
    <!-- Qual: 141.4° -->
    <line x1="0" y1="0" x2="87" y2="-67" stroke="#ddd" stroke-width="0.5"/>
    <!-- Surv: 192.8° -->
    <line x1="0" y1="0" x2="105" y2="34" stroke="#ddd" stroke-width="0.5"/>
    <!-- Design: 244.3° -->
    <line x1="0" y1="0" x2="65" y2="94" stroke="#ddd" stroke-width="0.5"/>
    <!-- Breadth: 295.7° -->
    <line x1="0" y1="0" x2="-65" y2="94" stroke="#ddd" stroke-width="0.5"/>
    <!-- Debt: 347.1° -->
    <line x1="0" y1="0" x2="-105" y2="34" stroke="#ddd" stroke-width="0.5"/>
    <!-- Indisp: 38.6° -->
    <line x1="0" y1="0" x2="-87" y2="-67" stroke="#ddd" stroke-width="0.5"/>

    <!-- Architect shape (high everything) -->
    <polygon points="0,-99 70,-54 84,27 52,75 -52,75 -84,27 -70,-54"
             fill="rgba(199,120,221,0.25)" stroke="#c678dd" stroke-width="2.5"/>

    <!-- Axis labels -->
    <text x="0" y="-118" text-anchor="middle" class="axis-label">Prod</text>
    <text x="100" y="-74" text-anchor="start" class="axis-label">Qual</text>
    <text x="116" y="42" text-anchor="start" class="axis-label">Surv</text>
    <text x="72" y="110" text-anchor="middle" class="axis-label">Design</text>
    <text x="-72" y="110" text-anchor="middle" class="axis-label">Breadth</text>
    <text x="-116" y="42" text-anchor="end" class="axis-label">Debt</text>
    <text x="-100" y="-74" text-anchor="end" class="axis-label">Indisp</text>

    <!-- Title -->
    <text x="0" y="140" text-anchor="middle" font-size="14" font-weight="700" fill="#c678dd">Architect</text>
    <text x="0" y="156" text-anchor="middle" font-size="11" fill="#888">Score: 80-100</text>
  </g>

  <!-- === Chart 2: Mass Producer === -->
  <g transform="translate(450,235)">
    <!-- Grid circles -->
    <circle cx="0" cy="0" r="110" fill="none" stroke="#e8e8e8" stroke-width="0.5"/>
    <circle cx="0" cy="0" r="82" fill="none" stroke="#e8e8e8" stroke-width="0.5"/>
    <circle cx="0" cy="0" r="55" fill="none" stroke="#e8e8e8" stroke-width="0.5"/>
    <circle cx="0" cy="0" r="27" fill="none" stroke="#e8e8e8" stroke-width="0.5"/>

    <!-- Axis lines -->
    <line x1="0" y1="0" x2="0" y2="-110" stroke="#ddd" stroke-width="0.5"/>
    <line x1="0" y1="0" x2="87" y2="-67" stroke="#ddd" stroke-width="0.5"/>
    <line x1="0" y1="0" x2="105" y2="34" stroke="#ddd" stroke-width="0.5"/>
    <line x1="0" y1="0" x2="65" y2="94" stroke="#ddd" stroke-width="0.5"/>
    <line x1="0" y1="0" x2="-65" y2="94" stroke="#ddd" stroke-width="0.5"/>
    <line x1="0" y1="0" x2="-105" y2="34" stroke="#ddd" stroke-width="0.5"/>
    <line x1="0" y1="0" x2="-87" y2="-67" stroke="#ddd" stroke-width="0.5"/>

    <!-- Mass Producer shape (high prod, low everything else) -->
    <polygon points="0,-99 16,-12 11,3 6,9 -12,18 -11,3 -9,-7"
             fill="rgba(224,108,117,0.25)" stroke="#e06c75" stroke-width="2.5"/>

    <!-- Axis labels -->
    <text x="0" y="-118" text-anchor="middle" class="axis-label">Prod</text>
    <text x="100" y="-74" text-anchor="start" class="axis-label">Qual</text>
    <text x="116" y="42" text-anchor="start" class="axis-label">Surv</text>
    <text x="72" y="110" text-anchor="middle" class="axis-label">Design</text>
    <text x="-72" y="110" text-anchor="middle" class="axis-label">Breadth</text>
    <text x="-116" y="42" text-anchor="end" class="axis-label">Debt</text>
    <text x="-100" y="-74" text-anchor="end" class="axis-label">Indisp</text>

    <!-- Title -->
    <text x="0" y="140" text-anchor="middle" font-size="14" font-weight="700" fill="#e06c75">Mass Producer</text>
    <text x="0" y="156" text-anchor="middle" font-size="11" fill="#888">Score: 20-35</text>
  </g>

  <!-- === Chart 3: Drifter === -->
  <g transform="translate(745,235)">
    <!-- Grid circles -->
    <circle cx="0" cy="0" r="110" fill="none" stroke="#e8e8e8" stroke-width="0.5"/>
    <circle cx="0" cy="0" r="82" fill="none" stroke="#e8e8e8" stroke-width="0.5"/>
    <circle cx="0" cy="0" r="55" fill="none" stroke="#e8e8e8" stroke-width="0.5"/>
    <circle cx="0" cy="0" r="27" fill="none" stroke="#e8e8e8" stroke-width="0.5"/>

    <!-- Axis lines -->
    <line x1="0" y1="0" x2="0" y2="-110" stroke="#ddd" stroke-width="0.5"/>
    <line x1="0" y1="0" x2="87" y2="-67" stroke="#ddd" stroke-width="0.5"/>
    <line x1="0" y1="0" x2="105" y2="34" stroke="#ddd" stroke-width="0.5"/>
    <line x1="0" y1="0" x2="65" y2="94" stroke="#ddd" stroke-width="0.5"/>
    <line x1="0" y1="0" x2="-65" y2="94" stroke="#ddd" stroke-width="0.5"/>
    <line x1="0" y1="0" x2="-105" y2="34" stroke="#ddd" stroke-width="0.5"/>
    <line x1="0" y1="0" x2="-87" y2="-67" stroke="#ddd" stroke-width="0.5"/>

    <!-- Drifter shape (high breadth only) -->
    <polygon points="0,-11 9,-7 5,2 3,5 -60,87 -11,3 -4,-3"
             fill="rgba(97,175,239,0.25)" stroke="#61afef" stroke-width="2.5"/>

    <!-- Axis labels -->
    <text x="0" y="-118" text-anchor="middle" class="axis-label">Prod</text>
    <text x="100" y="-74" text-anchor="start" class="axis-label">Qual</text>
    <text x="116" y="42" text-anchor="start" class="axis-label">Surv</text>
    <text x="72" y="110" text-anchor="middle" class="axis-label">Design</text>
    <text x="-72" y="110" text-anchor="middle" class="axis-label">Breadth</text>
    <text x="-116" y="42" text-anchor="end" class="axis-label">Debt</text>
    <text x="-100" y="-74" text-anchor="end" class="axis-label">Indisp</text>

    <!-- Title -->
    <text x="0" y="140" text-anchor="middle" font-size="14" font-weight="700" fill="#61afef">Drifter</text>
    <text x="0" y="156" text-anchor="middle" font-size="11" fill="#888">Score: 15-25</text>
  </g>

  <!-- Subtitle -->
  <text x="450" y="465" text-anchor="middle" font-size="11" fill="#999" font-family="-apple-system, sans-serif">Multi-axis evaluation exposes archetypes that single metrics miss. Mass Producers and Drifters look productive on individual axes but score low overall.</text>
</svg>