<svg xmlns="http://www.w3.org/2000/svg" width="960" height="720" viewBox="0 0 960 720">
  <defs>
    <style>
      text { font-family: -apple-system, 'Segoe UI', sans-serif; }
      .title { font-size: 18px; font-weight: 700; fill: #1a1a2e; }
      .axis-label { font-size: 10px; fill: #555; font-weight: 600; }
      .legend-text { font-size: 12px; fill: #333; }
      .grid-label { font-size: 9px; fill: #999; }
    </style>
  </defs>

  <!-- Background -->
  <rect width="960" height="720" rx="8" fill="#fafbfc"/>

  <!-- Title -->
  <text x="480" y="32" text-anchor="middle" class="title">Engineer Topology — 7-Axis Radar Profiles</text>

  <!-- ==================== Row 1 ==================== -->

  <!-- === Chart 1: Architect / Builder === -->
  <g transform="translate(170,200)">
    <circle cx="0" cy="0" r="100" fill="none" stroke="#e8e8e8" stroke-width="0.5"/>
    <circle cx="0" cy="0" r="75" fill="none" stroke="#e8e8e8" stroke-width="0.5"/>
    <circle cx="0" cy="0" r="50" fill="none" stroke="#e8e8e8" stroke-width="0.5"/>
    <circle cx="0" cy="0" r="25" fill="none" stroke="#e8e8e8" stroke-width="0.5"/>
    <line x1="0" y1="0" x2="0" y2="-100" stroke="#ddd" stroke-width="0.5"/>
    <line x1="0" y1="0" x2="78" y2="-62" stroke="#ddd" stroke-width="0.5"/>
    <line x1="0" y1="0" x2="97" y2="22" stroke="#ddd" stroke-width="0.5"/>
    <line x1="0" y1="0" x2="59" y2="81" stroke="#ddd" stroke-width="0.5"/>
    <line x1="0" y1="0" x2="-59" y2="81" stroke="#ddd" stroke-width="0.5"/>
    <line x1="0" y1="0" x2="-97" y2="22" stroke="#ddd" stroke-width="0.5"/>
    <line x1="0" y1="0" x2="-78" y2="-62" stroke="#ddd" stroke-width="0.5"/>

    <!-- Prod:100 Qual:64 Surv:100 Design:100 Breadth:91 Debt:79 Indisp:100 -->
    <polygon points="0,-100 50,-48 97,22 59,81 -54,74 -77,17 -78,-62"
             fill="rgba(199,120,221,0.2)" stroke="#c678dd" stroke-width="2.5"/>

    <text x="0" y="-108" text-anchor="middle" class="axis-label">Prod</text>
    <text x="90" y="-68" text-anchor="start" class="axis-label">Qual</text>
    <text x="106" y="28" text-anchor="start" class="axis-label">Surv</text>
    <text x="66" y="96" text-anchor="middle" class="axis-label">Design</text>
    <text x="-66" y="96" text-anchor="middle" class="axis-label">Breadth</text>
    <text x="-106" y="28" text-anchor="end" class="axis-label">Debt</text>
    <text x="-90" y="-68" text-anchor="end" class="axis-label">Indisp</text>

    <text x="0" y="126" text-anchor="middle" font-size="13" font-weight="700" fill="#c678dd">Architect / Builder</text>
    <text x="0" y="141" text-anchor="middle" font-size="10" fill="#888">Total: 92 — the full package</text>
  </g>

  <!-- === Chart 2: Producer / Churn === -->
  <g transform="translate(480,200)">
    <circle cx="0" cy="0" r="100" fill="none" stroke="#e8e8e8" stroke-width="0.5"/>
    <circle cx="0" cy="0" r="75" fill="none" stroke="#e8e8e8" stroke-width="0.5"/>
    <circle cx="0" cy="0" r="50" fill="none" stroke="#e8e8e8" stroke-width="0.5"/>
    <circle cx="0" cy="0" r="25" fill="none" stroke="#e8e8e8" stroke-width="0.5"/>
    <line x1="0" y1="0" x2="0" y2="-100" stroke="#ddd" stroke-width="0.5"/>
    <line x1="0" y1="0" x2="78" y2="-62" stroke="#ddd" stroke-width="0.5"/>
    <line x1="0" y1="0" x2="97" y2="22" stroke="#ddd" stroke-width="0.5"/>
    <line x1="0" y1="0" x2="59" y2="81" stroke="#ddd" stroke-width="0.5"/>
    <line x1="0" y1="0" x2="-59" y2="81" stroke="#ddd" stroke-width="0.5"/>
    <line x1="0" y1="0" x2="-97" y2="22" stroke="#ddd" stroke-width="0.5"/>
    <line x1="0" y1="0" x2="-78" y2="-62" stroke="#ddd" stroke-width="0.5"/>

    <!-- Prod:100 Qual:18 Surv:0 Design:17 Breadth:38 Debt:0 Indisp:0 -->
    <polygon points="0,-100 14,-11 0,0 10,14 -22,31 0,0 0,0"
             fill="rgba(224,108,117,0.2)" stroke="#e06c75" stroke-width="2.5"/>

    <text x="0" y="-108" text-anchor="middle" class="axis-label">Prod</text>
    <text x="90" y="-68" text-anchor="start" class="axis-label">Qual</text>
    <text x="106" y="28" text-anchor="start" class="axis-label">Surv</text>
    <text x="66" y="96" text-anchor="middle" class="axis-label">Design</text>
    <text x="-66" y="96" text-anchor="middle" class="axis-label">Breadth</text>
    <text x="-106" y="28" text-anchor="end" class="axis-label">Debt</text>
    <text x="-90" y="-68" text-anchor="end" class="axis-label">Indisp</text>

    <text x="0" y="126" text-anchor="middle" font-size="13" font-weight="700" fill="#e06c75">Producer / Churn</text>
    <text x="0" y="141" text-anchor="middle" font-size="10" fill="#888">Total: 13 — infinite rework loop</text>
  </g>

  <!-- === Chart 3: Producer / Rescue === -->
  <g transform="translate(790,200)">
    <circle cx="0" cy="0" r="100" fill="none" stroke="#e8e8e8" stroke-width="0.5"/>
    <circle cx="0" cy="0" r="75" fill="none" stroke="#e8e8e8" stroke-width="0.5"/>
    <circle cx="0" cy="0" r="50" fill="none" stroke="#e8e8e8" stroke-width="0.5"/>
    <circle cx="0" cy="0" r="25" fill="none" stroke="#e8e8e8" stroke-width="0.5"/>
    <line x1="0" y1="0" x2="0" y2="-100" stroke="#ddd" stroke-width="0.5"/>
    <line x1="0" y1="0" x2="78" y2="-62" stroke="#ddd" stroke-width="0.5"/>
    <line x1="0" y1="0" x2="97" y2="22" stroke="#ddd" stroke-width="0.5"/>
    <line x1="0" y1="0" x2="59" y2="81" stroke="#ddd" stroke-width="0.5"/>
    <line x1="0" y1="0" x2="-59" y2="81" stroke="#ddd" stroke-width="0.5"/>
    <line x1="0" y1="0" x2="-97" y2="22" stroke="#ddd" stroke-width="0.5"/>
    <line x1="0" y1="0" x2="-78" y2="-62" stroke="#ddd" stroke-width="0.5"/>

    <!-- Prod:100 Qual:85 Surv:10 Design:0 Breadth:50 Debt:100 Indisp:5 -->
    <polygon points="0,-100 66,-53 10,2 0,0 -30,40 -97,22 -4,-3"
             fill="rgba(230,162,60,0.2)" stroke="#e6a23c" stroke-width="2.5"/>

    <text x="0" y="-108" text-anchor="middle" class="axis-label">Prod</text>
    <text x="90" y="-68" text-anchor="start" class="axis-label">Qual</text>
    <text x="106" y="28" text-anchor="start" class="axis-label">Surv</text>
    <text x="66" y="96" text-anchor="middle" class="axis-label">Design</text>
    <text x="-66" y="96" text-anchor="middle" class="axis-label">Breadth</text>
    <text x="-106" y="28" text-anchor="end" class="axis-label">Debt</text>
    <text x="-90" y="-68" text-anchor="end" class="axis-label">Indisp</text>

    <text x="0" y="126" text-anchor="middle" font-size="13" font-weight="700" fill="#e6a23c">Producer / Rescue</text>
    <text x="0" y="141" text-anchor="middle" font-size="10" fill="#888">Total: 35 — legacy cleanup hero</text>
  </g>

  <!-- ==================== Row 2 ==================== -->

  <!-- === Chart 4: — / Spread === -->
  <g transform="translate(170,490)">
    <circle cx="0" cy="0" r="100" fill="none" stroke="#e8e8e8" stroke-width="0.5"/>
    <circle cx="0" cy="0" r="75" fill="none" stroke="#e8e8e8" stroke-width="0.5"/>
    <circle cx="0" cy="0" r="50" fill="none" stroke="#e8e8e8" stroke-width="0.5"/>
    <circle cx="0" cy="0" r="25" fill="none" stroke="#e8e8e8" stroke-width="0.5"/>
    <line x1="0" y1="0" x2="0" y2="-100" stroke="#ddd" stroke-width="0.5"/>
    <line x1="0" y1="0" x2="78" y2="-62" stroke="#ddd" stroke-width="0.5"/>
    <line x1="0" y1="0" x2="97" y2="22" stroke="#ddd" stroke-width="0.5"/>
    <line x1="0" y1="0" x2="59" y2="81" stroke="#ddd" stroke-width="0.5"/>
    <line x1="0" y1="0" x2="-59" y2="81" stroke="#ddd" stroke-width="0.5"/>
    <line x1="0" y1="0" x2="-97" y2="22" stroke="#ddd" stroke-width="0.5"/>
    <line x1="0" y1="0" x2="-78" y2="-62" stroke="#ddd" stroke-width="0.5"/>

    <!-- Prod:10 Qual:97 Surv:3 Design:9 Breadth:100 Debt:8 Indisp:31 -->
    <polygon points="0,-10 76,-60 3,1 5,7 -59,81 -8,2 -24,-19"
             fill="rgba(97,175,239,0.2)" stroke="#61afef" stroke-width="2.5"/>

    <text x="0" y="-108" text-anchor="middle" class="axis-label">Prod</text>
    <text x="90" y="-68" text-anchor="start" class="axis-label">Qual</text>
    <text x="106" y="28" text-anchor="start" class="axis-label">Surv</text>
    <text x="66" y="96" text-anchor="middle" class="axis-label">Design</text>
    <text x="-66" y="96" text-anchor="middle" class="axis-label">Breadth</text>
    <text x="-106" y="28" text-anchor="end" class="axis-label">Debt</text>
    <text x="-90" y="-68" text-anchor="end" class="axis-label">Indisp</text>

    <text x="0" y="126" text-anchor="middle" font-size="13" font-weight="700" fill="#61afef">— / Spread</text>
    <text x="0" y="141" text-anchor="middle" font-size="10" fill="#888">Total: 25 — wide but shallow</text>
  </g>

  <!-- === Chart 5: Anchor / Balanced === -->
  <g transform="translate(480,490)">
    <circle cx="0" cy="0" r="100" fill="none" stroke="#e8e8e8" stroke-width="0.5"/>
    <circle cx="0" cy="0" r="75" fill="none" stroke="#e8e8e8" stroke-width="0.5"/>
    <circle cx="0" cy="0" r="50" fill="none" stroke="#e8e8e8" stroke-width="0.5"/>
    <circle cx="0" cy="0" r="25" fill="none" stroke="#e8e8e8" stroke-width="0.5"/>
    <line x1="0" y1="0" x2="0" y2="-100" stroke="#ddd" stroke-width="0.5"/>
    <line x1="0" y1="0" x2="78" y2="-62" stroke="#ddd" stroke-width="0.5"/>
    <line x1="0" y1="0" x2="97" y2="22" stroke="#ddd" stroke-width="0.5"/>
    <line x1="0" y1="0" x2="59" y2="81" stroke="#ddd" stroke-width="0.5"/>
    <line x1="0" y1="0" x2="-59" y2="81" stroke="#ddd" stroke-width="0.5"/>
    <line x1="0" y1="0" x2="-97" y2="22" stroke="#ddd" stroke-width="0.5"/>
    <line x1="0" y1="0" x2="-78" y2="-62" stroke="#ddd" stroke-width="0.5"/>

    <!-- Prod:52 Qual:76 Surv:33 Design:12 Breadth:64 Debt:50 Indisp:9 -->
    <polygon points="0,-52 59,-47 32,7 7,10 -38,52 -49,11 -7,-6"
             fill="rgba(152,195,121,0.2)" stroke="#98c379" stroke-width="2.5"/>

    <text x="0" y="-108" text-anchor="middle" class="axis-label">Prod</text>
    <text x="90" y="-68" text-anchor="start" class="axis-label">Qual</text>
    <text x="106" y="28" text-anchor="start" class="axis-label">Surv</text>
    <text x="66" y="96" text-anchor="middle" class="axis-label">Design</text>
    <text x="-66" y="96" text-anchor="middle" class="axis-label">Breadth</text>
    <text x="-106" y="28" text-anchor="end" class="axis-label">Debt</text>
    <text x="-90" y="-68" text-anchor="end" class="axis-label">Indisp</text>

    <text x="0" y="126" text-anchor="middle" font-size="13" font-weight="700" fill="#98c379">Anchor / Balanced</text>
    <text x="0" y="141" text-anchor="middle" font-size="10" fill="#888">Total: 40 — reliable, no peaks</text>
  </g>

  <!-- === Chart 6: — / — / Fragile === -->
  <g transform="translate(790,490)">
    <circle cx="0" cy="0" r="100" fill="none" stroke="#e8e8e8" stroke-width="0.5"/>
    <circle cx="0" cy="0" r="75" fill="none" stroke="#e8e8e8" stroke-width="0.5"/>
    <circle cx="0" cy="0" r="50" fill="none" stroke="#e8e8e8" stroke-width="0.5"/>
    <circle cx="0" cy="0" r="25" fill="none" stroke="#e8e8e8" stroke-width="0.5"/>
    <line x1="0" y1="0" x2="0" y2="-100" stroke="#ddd" stroke-width="0.5"/>
    <line x1="0" y1="0" x2="78" y2="-62" stroke="#ddd" stroke-width="0.5"/>
    <line x1="0" y1="0" x2="97" y2="22" stroke="#ddd" stroke-width="0.5"/>
    <line x1="0" y1="0" x2="59" y2="81" stroke="#ddd" stroke-width="0.5"/>
    <line x1="0" y1="0" x2="-59" y2="81" stroke="#ddd" stroke-width="0.5"/>
    <line x1="0" y1="0" x2="-97" y2="22" stroke="#ddd" stroke-width="0.5"/>
    <line x1="0" y1="0" x2="-78" y2="-62" stroke="#ddd" stroke-width="0.5"/>

    <!-- Prod:14 Qual:49 Surv:100(dormant) Design:100 Breadth:100 Debt:39 Indisp:100 -->
    <polygon points="0,-14 38,-30 97,22 59,81 -59,81 -38,9 -78,-62"
             fill="rgba(229,192,123,0.2)" stroke="#e5c07b" stroke-width="2.5"/>

    <text x="0" y="-108" text-anchor="middle" class="axis-label">Prod</text>
    <text x="90" y="-68" text-anchor="start" class="axis-label">Qual</text>
    <text x="106" y="28" text-anchor="start" class="axis-label">Surv</text>
    <text x="66" y="96" text-anchor="middle" class="axis-label">Design</text>
    <text x="-66" y="96" text-anchor="middle" class="axis-label">Breadth</text>
    <text x="-106" y="28" text-anchor="end" class="axis-label">Debt</text>
    <text x="-90" y="-68" text-anchor="end" class="axis-label">Indisp</text>

    <text x="0" y="126" text-anchor="middle" font-size="13" font-weight="700" fill="#e5c07b">— / — / Fragile</text>
    <text x="0" y="141" text-anchor="middle" font-size="10" fill="#888">Total: 31 — dormant, not durable</text>
  </g>

  <!-- Subtitle -->
  <text x="480" y="700" text-anchor="middle" font-size="11" fill="#999" font-family="-apple-system, sans-serif">Same 7 scores, radically different profiles. Churn and Rescue both have high Prod — but Debt separates them. Spread has high Breadth — but nothing else. Fragile looks healthy until you check Prod.</text>
</svg>
