<svg xmlns="http://www.w3.org/2000/svg" width="540" height="200" viewBox="0 0 540 200">
  <defs>
    <style>
      @import url('https://fonts.googleapis.com/css2?family=JetBrains+Mono:wght@400;700&amp;display=swap');
      text { font-family: 'JetBrains Mono', 'SF Mono', 'Menlo', monospace; }
    </style>
    <clipPath id="lens-true-f">
      <circle cx="100" cy="100" r="78"/>
    </clipPath>
    <radialGradient id="glow-true-f" cx="50%" cy="50%" r="50%">
      <stop offset="0%" stop-color="#83a598" stop-opacity="0.25"/>
      <stop offset="40%" stop-color="#458588" stop-opacity="0.05"/>
      <stop offset="100%" stop-color="#282828" stop-opacity="0"/>
    </radialGradient>
  </defs>

  <!-- Icon (512→200 area via scale 0.39) -->
  <g transform="scale(0.39) translate(0,0)">
    <rect width="512" height="512" rx="64" fill="#1d2021"/>
    <circle cx="256" cy="256" r="220" fill="none" stroke="#504945" stroke-width="3" opacity="0.6"/>
    <circle cx="256" cy="256" r="200" fill="none" stroke="#504945" stroke-width="5"/>
    <circle cx="256" cy="256" r="195" fill="none" stroke="#3c3836" stroke-width="1.5"/>
    <line x1="256" y1="56" x2="256" y2="36" stroke="#665c54" stroke-width="2" opacity="0.4"/>
    <line x1="256" y1="476" x2="256" y2="456" stroke="#665c54" stroke-width="2" opacity="0.4"/>
    <line x1="56" y1="256" x2="36" y2="256" stroke="#665c54" stroke-width="2" opacity="0.4"/>
    <line x1="476" y1="256" x2="456" y2="256" stroke="#665c54" stroke-width="2" opacity="0.4"/>
    <line x1="115" y1="115" x2="101" y2="101" stroke="#665c54" stroke-width="2" opacity="0.4"/>
    <line x1="397" y1="397" x2="411" y2="411" stroke="#665c54" stroke-width="2" opacity="0.4"/>
    <line x1="397" y1="115" x2="411" y2="101" stroke="#665c54" stroke-width="2" opacity="0.4"/>
    <line x1="115" y1="397" x2="101" y2="411" stroke="#665c54" stroke-width="2" opacity="0.4"/>
    <g clip-path="url(#lens-true-f)">
      <circle cx="256" cy="256" r="200" fill="#282828"/>
      <circle cx="256" cy="256" r="160" fill="url(#glow-true-f)"/>
      <circle cx="256" cy="256" r="140" fill="none" stroke="#458588" stroke-width="0.5" opacity="0.08"/>
      <path d="M 110 410 Q 140 350 170 310 Q 200 270 230 256 Q 245 250 256 256" fill="none" stroke="#83a598" stroke-width="2" opacity="0.5" stroke-linecap="round"/>
      <path d="M 110 410 Q 140 350 170 310 Q 200 270 230 256 Q 245 250 256 256" fill="none" stroke="#83a598" stroke-width="6" opacity="0.1" stroke-linecap="round"/>
      <circle cx="125" cy="390" r="2" fill="#83a598" opacity="0.2"/>
      <circle cx="140" cy="365" r="2" fill="#83a598" opacity="0.25"/>
      <circle cx="155" cy="340" r="2.5" fill="#83a598" opacity="0.3"/>
      <circle cx="170" cy="315" r="2.5" fill="#83a598" opacity="0.35"/>
      <circle cx="188" cy="292" r="2.5" fill="#83a598" opacity="0.4"/>
      <circle cx="205" cy="273" r="3" fill="#83a598" opacity="0.5"/>
      <circle cx="222" cy="261" r="3" fill="#83a598" opacity="0.6"/>
      <circle cx="240" cy="255" r="3" fill="#83a598" opacity="0.7"/>
      <path d="M 390 130 Q 350 170 320 210 Q 300 240 280 256" fill="none" stroke="#83a598" stroke-width="1" opacity="0.15" stroke-dasharray="4 6" stroke-linecap="round"/>
      <circle cx="256" cy="256" r="20" fill="#83a598" opacity="0.06"/>
      <circle cx="256" cy="256" r="12" fill="#83a598" opacity="0.12"/>
      <circle cx="256" cy="256" r="6" fill="#83a598" opacity="0.8"/>
      <circle cx="256" cy="256" r="3.5" fill="#ebdbb2" opacity="0.95"/>
      <circle cx="160" cy="325" r="3" fill="#83a598" opacity="0.5"/>
      <circle cx="200" cy="280" r="3.5" fill="#ebdbb2" opacity="0.6"/>
      <circle cx="320" cy="170" r="3.5" fill="#d3869b" opacity="0.4"/>
      <circle cx="350" cy="320" r="3" fill="#b8bb26" opacity="0.35"/>
      <circle cx="180" cy="170" r="3" fill="#fabd2f" opacity="0.35"/>
      <circle cx="340" cy="230" r="2.5" fill="#83a598" opacity="0.3"/>
      <circle cx="150" cy="220" r="3" fill="#ebdbb2" opacity="0.3"/>
      <circle cx="300" cy="380" r="2.5" fill="#d3869b" opacity="0.25"/>
      <circle cx="370" cy="280" r="2.5" fill="#b8bb26" opacity="0.25"/>
      <circle cx="200" cy="390" r="2" fill="#fabd2f" opacity="0.2"/>
      <circle cx="310" cy="150" r="2" fill="#8ec07c" opacity="0.25"/>
      <circle cx="380" cy="180" r="2.5" fill="#83a598" opacity="0.2"/>
      <line x1="160" y1="325" x2="200" y2="280" stroke="#665c54" stroke-width="0.7" opacity="0.2"/>
      <line x1="200" y1="280" x2="256" y2="256" stroke="#665c54" stroke-width="0.7" opacity="0.2"/>
      <circle cx="115" cy="400" r="1" fill="#83a598" opacity="0.15"/>
      <circle cx="130" cy="380" r="1.5" fill="#83a598" opacity="0.15"/>
      <circle cx="148" cy="348" r="1" fill="#83a598" opacity="0.2"/>
      <circle cx="162" cy="328" r="1.5" fill="#458588" opacity="0.2"/>
      <circle cx="178" cy="302" r="1" fill="#458588" opacity="0.25"/>
      <circle cx="195" cy="280" r="1.5" fill="#83a598" opacity="0.3"/>
      <circle cx="215" cy="265" r="1" fill="#83a598" opacity="0.35"/>
    </g>
  </g>

  <!-- Text -->
  <text x="230" y="105" fill="#ebdbb2" font-size="64" font-weight="700" letter-spacing="8">true</text>
  <text x="232" y="135" fill="#928374" font-size="16">the Gravitational Record</text>
  <text x="232" y="162" fill="#665c54" font-size="11">prove your orbit</text>
  <text x="232" y="180" fill="#504945" font-size="9" font-style="italic">Your journey, observed. Your gravity, proven.</text>
</svg>
