<svg xmlns="http://www.w3.org/2000/svg" width="540" height="200" viewBox="0 0 540 200">
  <defs>
    <style>
      @import url('https://fonts.googleapis.com/css2?family=JetBrains+Mono:wght@400;700&amp;display=swap');
      text { font-family: 'JetBrains Mono', 'SF Mono', 'Menlo', monospace; }
    </style>
    <clipPath id="lens-ideal-f">
      <circle cx="100" cy="100" r="78"/>
    </clipPath>
    <radialGradient id="glow-ideal-f" cx="50%" cy="50%" r="50%">
      <stop offset="0%" stop-color="#8ec07c" stop-opacity="0.25"/>
      <stop offset="40%" stop-color="#689d6a" stop-opacity="0.05"/>
      <stop offset="100%" stop-color="#282828" stop-opacity="0"/>
    </radialGradient>
  </defs>

  <!-- Icon (512→200 area via scale 0.39) -->
  <g transform="scale(0.39) translate(0,0)">
    <rect width="512" height="512" rx="64" fill="#1d2021"/>
    <circle cx="256" cy="256" r="220" fill="none" stroke="#504945" stroke-width="3" opacity="0.6"/>
    <circle cx="256" cy="256" r="200" fill="none" stroke="#504945" stroke-width="5"/>
    <circle cx="256" cy="256" r="195" fill="none" stroke="#3c3836" stroke-width="1.5"/>
    <line x1="256" y1="56" x2="256" y2="36" stroke="#665c54" stroke-width="2" opacity="0.4"/>
    <line x1="256" y1="476" x2="256" y2="456" stroke="#665c54" stroke-width="2" opacity="0.4"/>
    <line x1="56" y1="256" x2="36" y2="256" stroke="#665c54" stroke-width="2" opacity="0.4"/>
    <line x1="476" y1="256" x2="456" y2="256" stroke="#665c54" stroke-width="2" opacity="0.4"/>
    <line x1="115" y1="115" x2="101" y2="101" stroke="#665c54" stroke-width="2" opacity="0.4"/>
    <line x1="397" y1="397" x2="411" y2="411" stroke="#665c54" stroke-width="2" opacity="0.4"/>
    <line x1="397" y1="115" x2="411" y2="101" stroke="#665c54" stroke-width="2" opacity="0.4"/>
    <line x1="115" y1="397" x2="101" y2="411" stroke="#665c54" stroke-width="2" opacity="0.4"/>
    <g clip-path="url(#lens-ideal-f)">
      <circle cx="256" cy="256" r="200" fill="#282828"/>
      <circle cx="256" cy="256" r="160" fill="url(#glow-ideal-f)"/>
      <ellipse cx="256" cy="256" rx="140" ry="55" fill="none" stroke="#8ec07c" stroke-width="1.2" opacity="0.3" transform="rotate(-15,256,256)"/>
      <ellipse cx="256" cy="256" rx="140" ry="55" fill="none" stroke="#8ec07c" stroke-width="4" opacity="0.06" transform="rotate(-15,256,256)"/>
      <ellipse cx="256" cy="256" rx="100" ry="40" fill="none" stroke="#8ec07c" stroke-width="1.4" opacity="0.4" transform="rotate(25,256,256)"/>
      <ellipse cx="256" cy="256" rx="100" ry="40" fill="none" stroke="#8ec07c" stroke-width="4" opacity="0.08" transform="rotate(25,256,256)"/>
      <ellipse cx="256" cy="256" rx="60" ry="28" fill="none" stroke="#b8bb26" stroke-width="1.5" opacity="0.45" transform="rotate(-50,256,256)"/>
      <ellipse cx="256" cy="256" rx="60" ry="28" fill="none" stroke="#b8bb26" stroke-width="4" opacity="0.08" transform="rotate(-50,256,256)"/>
      <circle cx="370" cy="225" r="5" fill="#8ec07c" opacity="0.9"/>
      <circle cx="370" cy="225" r="8" fill="#8ec07c" opacity="0.15"/>
      <circle cx="185" cy="230" r="4" fill="#b8bb26" opacity="0.8"/>
      <circle cx="185" cy="230" r="7" fill="#b8bb26" opacity="0.12"/>
      <path d="M 310 195 l 6 4 l -6 4" fill="none" stroke="#8ec07c" stroke-width="1.2" opacity="0.4" transform="rotate(-15,310,199)"/>
      <path d="M 200 310 l 6 4 l -6 4" fill="none" stroke="#8ec07c" stroke-width="1.2" opacity="0.35" transform="rotate(-15,200,314)"/>
      <path d="M 330 270 l 6 4 l -6 4" fill="none" stroke="#8ec07c" stroke-width="1.2" opacity="0.35" transform="rotate(25,330,274)"/>
      <path d="M 175 248 l 6 4 l -6 4" fill="none" stroke="#8ec07c" stroke-width="1.2" opacity="0.3" transform="rotate(25,175,252)"/>
      <path d="M 280 225 l 5 3.5 l -5 3.5" fill="none" stroke="#b8bb26" stroke-width="1.2" opacity="0.4" transform="rotate(-50,280,228)"/>
      <circle cx="256" cy="256" r="18" fill="#8ec07c" opacity="0.06"/>
      <circle cx="256" cy="256" r="10" fill="#8ec07c" opacity="0.12"/>
      <circle cx="256" cy="256" r="5" fill="#8ec07c" opacity="0.8"/>
      <circle cx="256" cy="256" r="3" fill="#ebdbb2" opacity="0.95"/>
      <circle cx="150" cy="150" r="2.5" fill="#ebdbb2" opacity="0.3"/>
      <circle cx="360" cy="360" r="2.5" fill="#ebdbb2" opacity="0.25"/>
      <circle cx="350" cy="150" r="2" fill="#d3869b" opacity="0.25"/>
      <circle cx="155" cy="370" r="2" fill="#fabd2f" opacity="0.2"/>
      <circle cx="300" cy="130" r="2" fill="#83a598" opacity="0.2"/>
      <circle cx="130" cy="280" r="2" fill="#8ec07c" opacity="0.2"/>
      <circle cx="380" cy="300" r="2" fill="#b8bb26" opacity="0.2"/>
      <line x1="256" y1="100" x2="256" y2="412" stroke="#504945" stroke-width="0.3" opacity="0.1"/>
      <line x1="100" y1="256" x2="412" y2="256" stroke="#504945" stroke-width="0.3" opacity="0.1"/>
    </g>
  </g>

  <!-- Text -->
  <text x="230" y="105" fill="#ebdbb2" font-size="64" font-weight="700" letter-spacing="8">ideal</text>
  <text x="232" y="135" fill="#928374" font-size="16">the Orbital Navigator</text>
  <text x="232" y="162" fill="#665c54" font-size="11">navigate by gravity</text>
  <text x="232" y="180" fill="#504945" font-size="9" font-style="italic">Navigate by gravity, not by noise.</text>
</svg>
