<svg xmlns="http://www.w3.org/2000/svg" width="1200" height="540" viewBox="0 0 1200 540">
  <defs>
    <style>
      @import url('https://fonts.googleapis.com/css2?family=JetBrains+Mono:wght@400;700&amp;display=swap');
      text { font-family: 'JetBrains Mono', 'SF Mono', 'Menlo', monospace; font-size: 12px; }
      .header { fill: #8ec07c; font-weight: 700; }
      .rank { fill: #ebdbb2; }
      .name { fill: #fabd2f; }
      .signal { fill: #ebdbb2; }
      .total-high { fill: #d3869b; font-weight: 700; }
      .total-mid { fill: #b8bb26; font-weight: 700; }
      .total-senior { fill: #fabd2f; }
      .total-low { fill: #ebdbb2; }
      .total-junior { fill: #928374; }
      .type { fill: #83a598; }
      .conf { fill: #928374; }
      .active-yes { fill: #b8bb26; }
      .active-no { fill: #928374; }
      .domain-title { fill: #fb4934; font-weight: 700; font-size: 15px; }
      .summary { fill: #928374; font-size: 12px; }
      .prompt { fill: #b8bb26; font-size: 13px; }
      .cmd { fill: #ebdbb2; font-size: 13px; }
      .grav-healthy { fill: #b8bb26; font-weight: 700; }
      .grav-moderate { fill: #fabd2f; }
      .grav-fragile { fill: #fb4934; font-weight: 700; }
      .grav-dim { fill: #928374; }
    </style>
  </defs>

  <!-- Terminal background -->
  <rect width="1200" height="540" rx="10" fill="#282828"/>

  <!-- Title bar -->
  <rect width="1200" height="32" rx="10" fill="#1d2021"/>
  <rect y="22" width="1200" height="10" fill="#1d2021"/>
  <circle cx="20" cy="16" r="6" fill="#cc241d"/>
  <circle cx="40" cy="16" r="6" fill="#d79921"/>
  <circle cx="60" cy="16" r="6" fill="#98971a"/>
  <text x="600" y="20" text-anchor="middle" fill="#928374" font-size="12">Terminal — eis analyze</text>

  <!-- Command line -->
  <text x="20" y="58" class="prompt">❯</text>
  <text x="36" y="58" class="cmd">eis analyze --config eis.yaml --recursive ~/workspace</text>

  <!-- Domain title -->
  <text x="20" y="88" class="domain-title">═══ Backend ═══</text>
  <text x="20" y="106" class="summary">Analyzed 12 repo(s), 10 engineers</text>

  <!-- Header -->
  <text x="20" y="136" class="header">#</text>
  <text x="40" y="136" class="header">Member</text>
  <text x="170" y="136" class="header">Active</text>
  <text x="224" y="136" class="header">Prod</text>
  <text x="268" y="136" class="header">Qual</text>
  <text x="312" y="136" class="header">Robust</text>
  <text x="368" y="136" class="header">Dormant</text>
  <text x="432" y="136" class="header">Design</text>
  <text x="490" y="136" class="header">Breadth</text>
  <text x="550" y="136" class="header">Debt</text>
  <text x="594" y="136" class="header">Indisp</text>
  <text x="648" y="136" class="header">Grav</text>
  <text x="698" y="136" class="header">Impact</text>
  <text x="758" y="136" class="header">Role</text>
  <text x="896" y="136" class="header">Style</text>
  <text x="1040" y="136" class="header">State</text>

  <!-- Separator -->
  <line x1="20" y1="142" x2="1180" y2="142" stroke="#504945" stroke-width="1"/>

  <!-- Row 1 - Architect / Builder / Active  Grav=97 green -->
  <text x="20" y="162" class="rank">1</text>
  <text x="40" y="162" class="name">machuz</text>
  <text x="186" y="162" class="active-yes">✓</text>
  <text x="224" y="162" class="signal">100</text>
  <text x="268" y="162" class="signal">64</text>
  <text x="312" y="162" class="signal">100</text>
  <text x="368" y="162" class="signal">100</text>
  <text x="432" y="162" class="signal">100</text>
  <text x="490" y="162" class="signal">91</text>
  <text x="550" y="162" class="signal">79</text>
  <text x="594" y="162" class="signal">100</text>
  <text x="648" y="162" class="grav-healthy">97</text>
  <text x="698" y="162" class="total-high">92.4</text>
  <text x="758" y="162" class="type">Architect</text>
  <text x="832" y="162" class="conf">(1.00)</text>
  <text x="896" y="162" class="type">Builder</text>
  <text x="960" y="162" class="conf">(1.00)</text>
  <text x="1040" y="162" class="type">Active</text>
  <text x="1098" y="162" class="conf">(0.80)</text>

  <!-- Row 2 - Producer / Mass / Former  Grav=72 yellow -->
  <text x="20" y="182" class="rank">2</text>
  <text x="40" y="182" class="name">bob</text>
  <text x="186" y="182" class="active-no">—</text>
  <text x="224" y="182" class="signal">93</text>
  <text x="268" y="182" class="signal">74</text>
  <text x="312" y="182" class="signal">22</text>
  <text x="368" y="182" class="signal">24</text>
  <text x="432" y="182" class="signal">47</text>
  <text x="490" y="182" class="signal">91</text>
  <text x="550" y="182" class="signal">20</text>
  <text x="594" y="182" class="signal">76</text>
  <text x="648" y="182" class="grav-moderate">72</text>
  <text x="698" y="182" class="total-senior">51.7</text>
  <text x="758" y="182" class="type">Producer</text>
  <text x="832" y="182" class="conf">(1.00)</text>
  <text x="896" y="182" class="type">Mass</text>
  <text x="940" y="182" class="conf">(0.65)</text>
  <text x="1040" y="182" class="type">Former</text>
  <text x="1098" y="182" class="conf">(0.65)</text>

  <!-- Row 3 - Anchor / Balanced / Active  Grav=26 yellow -->
  <text x="20" y="202" class="rank">3</text>
  <text x="40" y="202" class="name">charlie</text>
  <text x="186" y="202" class="active-yes">✓</text>
  <text x="224" y="202" class="signal">52</text>
  <text x="268" y="202" class="signal">76</text>
  <text x="312" y="202" class="signal">33</text>
  <text x="368" y="202" class="signal">35</text>
  <text x="432" y="202" class="signal">12</text>
  <text x="490" y="202" class="signal">64</text>
  <text x="550" y="202" class="signal">50</text>
  <text x="594" y="202" class="signal">9</text>
  <text x="648" y="202" class="grav-moderate">26</text>
  <text x="698" y="202" class="total-senior">39.5</text>
  <text x="758" y="202" class="type">Anchor</text>
  <text x="820" y="202" class="conf">(0.90)</text>
  <text x="896" y="202" class="type">Balanced</text>
  <text x="972" y="202" class="conf">(0.30)</text>
  <text x="1040" y="202" class="type">Active</text>
  <text x="1098" y="202" class="conf">(0.80)</text>

  <!-- Row 4 - Anchor / Mass / —  Grav=11 gray -->
  <text x="20" y="222" class="rank">4</text>
  <text x="40" y="222" class="name">diana</text>
  <text x="186" y="222" class="active-no">—</text>
  <text x="224" y="222" class="signal">100</text>
  <text x="268" y="222" class="signal">95</text>
  <text x="312" y="222" class="signal">1</text>
  <text x="368" y="222" class="signal">2</text>
  <text x="432" y="222" class="signal">2</text>
  <text x="490" y="222" class="signal">36</text>
  <text x="550" y="222" class="signal">0</text>
  <text x="594" y="222" class="signal">0</text>
  <text x="648" y="222" class="grav-dim">11</text>
  <text x="698" y="222" class="total-low">28.9</text>
  <text x="758" y="222" class="type">Anchor</text>
  <text x="820" y="222" class="conf">(1.00)</text>
  <text x="896" y="222" class="type">Mass</text>
  <text x="940" y="222" class="conf">(1.00)</text>
  <text x="1040" y="222" class="conf">—</text>

  <!-- Row 5 - — / Spread / Silent  Grav=45 yellow -->
  <text x="20" y="242" class="rank">5</text>
  <text x="40" y="242" class="name">eve</text>
  <text x="186" y="242" class="active-no">—</text>
  <text x="224" y="242" class="signal">10</text>
  <text x="268" y="242" class="signal">97</text>
  <text x="312" y="242" class="signal">4</text>
  <text x="368" y="242" class="signal">3</text>
  <text x="432" y="242" class="signal">9</text>
  <text x="490" y="242" class="signal">100</text>
  <text x="550" y="242" class="signal">8</text>
  <text x="594" y="242" class="signal">31</text>
  <text x="648" y="242" class="grav-moderate">45</text>
  <text x="698" y="242" class="total-low">25.4</text>
  <text x="758" y="242" class="conf">—</text>
  <text x="896" y="242" class="type">Spread</text>
  <text x="956" y="242" class="conf">(1.00)</text>
  <text x="1040" y="242" class="type">Silent</text>
  <text x="1094" y="242" class="conf">(1.00)</text>

  <!-- Row 6 - — / Spread / Growing  Grav=19 gray -->
  <text x="20" y="262" class="rank">6</text>
  <text x="40" y="262" class="name">frank</text>
  <text x="186" y="262" class="active-yes">✓</text>
  <text x="224" y="262" class="signal">17</text>
  <text x="268" y="262" class="signal">70</text>
  <text x="312" y="262" class="signal">1</text>
  <text x="368" y="262" class="signal">1</text>
  <text x="432" y="262" class="signal">0</text>
  <text x="490" y="262" class="signal">64</text>
  <text x="550" y="262" class="signal">42</text>
  <text x="594" y="262" class="signal">0</text>
  <text x="648" y="262" class="grav-dim">19</text>
  <text x="698" y="262" class="total-low">22.3</text>
  <text x="758" y="262" class="conf">—</text>
  <text x="896" y="262" class="type">Spread</text>
  <text x="956" y="262" class="conf">(0.59)</text>
  <text x="1040" y="262" class="type">Growing</text>
  <text x="1108" y="262" class="conf">(0.75)</text>

  <!-- Row 7 - — / — / Active  Grav=8 gray -->
  <text x="20" y="282" class="rank">7</text>
  <text x="40" y="282" class="name">grace</text>
  <text x="186" y="282" class="active-yes">✓</text>
  <text x="224" y="282" class="signal">5</text>
  <text x="268" y="282" class="signal">64</text>
  <text x="312" y="282" class="signal">0</text>
  <text x="368" y="282" class="signal">1</text>
  <text x="432" y="282" class="signal">0</text>
  <text x="490" y="282" class="signal">27</text>
  <text x="550" y="282" class="signal">36</text>
  <text x="594" y="282" class="signal">0</text>
  <text x="648" y="282" class="grav-dim">8</text>
  <text x="698" y="282" class="total-junior">15.3</text>
  <text x="758" y="282" class="conf">—</text>
  <text x="896" y="282" class="conf">—</text>
  <text x="1040" y="282" class="type">Active</text>
  <text x="1098" y="282" class="conf">(0.80)</text>

  <!-- Row 8 - — / — / Growing  Grav=3 gray -->
  <text x="20" y="302" class="rank">8</text>
  <text x="40" y="302" class="name">henry</text>
  <text x="186" y="302" class="active-no">—</text>
  <text x="224" y="302" class="signal">0</text>
  <text x="268" y="302" class="signal">61</text>
  <text x="312" y="302" class="signal">0</text>
  <text x="368" y="302" class="signal">0</text>
  <text x="432" y="302" class="signal">0</text>
  <text x="490" y="302" class="signal">9</text>
  <text x="550" y="302" class="signal">0</text>
  <text x="594" y="302" class="signal">0</text>
  <text x="648" y="302" class="grav-dim">3</text>
  <text x="698" y="302" class="total-junior">5.6</text>
  <text x="758" y="302" class="conf">—</text>
  <text x="896" y="302" class="conf">—</text>
  <text x="1040" y="302" class="type">Growing</text>
  <text x="1108" y="302" class="conf">(0.53)</text>

  <!-- Bus Factor -->
  <text x="20" y="342" style="fill: #fb4934; font-weight: 700; font-size: 14px;">Bus Factor Risks:</text>

  <text x="20" y="366" class="header">Level</text>
  <text x="120" y="366" class="header">Module</text>
  <text x="380" y="366" class="header">Owner</text>
  <text x="520" y="366" class="header">Share</text>
  <line x1="20" y1="372" x2="600" y2="372" stroke="#504945" stroke-width="1"/>

  <text x="20" y="392" style="fill: #fb4934; font-weight: 700;">CRITICAL</text>
  <text x="120" y="392" class="signal">app/di</text>
  <text x="380" y="392" class="name">machuz</text>
  <text x="520" y="392" class="signal">93%</text>

  <text x="20" y="412" style="fill: #fb4934; font-weight: 700;">CRITICAL</text>
  <text x="120" y="412" class="signal">tests/testhelper</text>
  <text x="380" y="412" class="name">machuz</text>
  <text x="520" y="412" class="signal">96%</text>

  <text x="20" y="432" style="fill: #fabd2f;">HIGH</text>
  <text x="120" y="432" class="signal">app/common</text>
  <text x="380" y="432" class="name">bob</text>
  <text x="520" y="432" class="signal">68%</text>

  <!-- Footer -->
  <text x="20" y="472" class="summary">Completed in 2m37s (12 repos total)</text>

  <!-- Signal legend -->
  <text x="20" y="498" class="summary">  80-100  Supernova: 1    40-59  Senior-level: 1    20-29  Junior-Mid: 3    0-19  Junior: 3</text>

  <!-- Version -->
  <text x="20" y="520" class="summary">eis v0.11.0 — github.com/machuz/eis</text>
</svg>
