<svg xmlns="http://www.w3.org/2000/svg" width="960" height="520" viewBox="0 0 960 520">
  <defs>
    <style>
      @import url('https://fonts.googleapis.com/css2?family=JetBrains+Mono:wght@400;700&amp;display=swap');
      text { font-family: 'JetBrains Mono', 'SF Mono', 'Menlo', monospace; font-size: 13px; }
      .header { fill: #56b6c2; font-weight: 700; }
      .rank { fill: #abb2bf; }
      .name { fill: #e5c07b; }
      .score { fill: #abb2bf; }
      .total-high { fill: #c678dd; font-weight: 700; }
      .total-mid { fill: #98c379; font-weight: 700; }
      .total-senior { fill: #e5c07b; }
      .total-low { fill: #abb2bf; }
      .total-junior { fill: #5c6370; }
      .type { fill: #61afef; }
      .domain-title { fill: #e06c75; font-weight: 700; font-size: 15px; }
      .summary { fill: #5c6370; font-size: 12px; }
      .prompt { fill: #98c379; font-size: 13px; }
      .cmd { fill: #abb2bf; font-size: 13px; }
    </style>
  </defs>

  <!-- Terminal background -->
  <rect width="960" height="520" rx="10" fill="#282c34"/>

  <!-- Title bar -->
  <rect width="960" height="32" rx="10" fill="#21252b"/>
  <rect y="22" width="960" height="10" fill="#21252b"/>
  <circle cx="20" cy="16" r="6" fill="#e06c75"/>
  <circle cx="40" cy="16" r="6" fill="#e5c07b"/>
  <circle cx="60" cy="16" r="6" fill="#98c379"/>
  <text x="480" y="20" text-anchor="middle" fill="#5c6370" font-size="12">Terminal — eis analyze</text>

  <!-- Command line -->
  <text x="20" y="58" class="prompt">❯</text>
  <text x="36" y="58" class="cmd">eis analyze --config eis.yaml --recursive ~/workspace</text>

  <!-- Domain title -->
  <text x="20" y="88" class="domain-title">═══ Backend ═══</text>
  <text x="20" y="106" class="summary">Analyzed 12 repo(s), 10 engineers</text>

  <!-- Header -->
  <text x="20" y="136" class="header">#</text>
  <text x="46" y="136" class="header">Member</text>
  <text x="230" y="136" class="header">Prod</text>
  <text x="290" y="136" class="header">Qual</text>
  <text x="350" y="136" class="header">Surv</text>
  <text x="410" y="136" class="header">Design</text>
  <text x="480" y="136" class="header">Breadth</text>
  <text x="560" y="136" class="header">Debt</text>
  <text x="620" y="136" class="header">Indisp</text>
  <text x="700" y="136" class="header">Total</text>
  <text x="770" y="136" class="header">Type</text>

  <!-- Separator -->
  <line x1="20" y1="142" x2="940" y2="142" stroke="#3e4451" stroke-width="1"/>

  <!-- Row 1 - Architect (high score) -->
  <text x="20" y="162" class="rank">1</text>
  <text x="46" y="162" class="name">alice</text>
  <text x="230" y="162" class="score">100</text>
  <text x="290" y="162" class="score">72</text>
  <text x="350" y="162" class="score">100</text>
  <text x="410" y="162" class="score">100</text>
  <text x="480" y="162" class="score">88</text>
  <text x="560" y="162" class="score">82</text>
  <text x="620" y="162" class="score">100</text>
  <text x="700" y="162" class="total-high">92.1</text>
  <text x="770" y="162" class="type">Architect</text>

  <!-- Row 2 - Solid Cleaner -->
  <text x="20" y="182" class="rank">2</text>
  <text x="46" y="182" class="name">bob</text>
  <text x="230" y="182" class="score">85</text>
  <text x="290" y="182" class="score">88</text>
  <text x="350" y="182" class="score">72</text>
  <text x="410" y="182" class="score">45</text>
  <text x="480" y="182" class="score">62</text>
  <text x="560" y="182" class="score">91</text>
  <text x="620" y="182" class="score">35</text>
  <text x="700" y="182" class="total-mid">69.8</text>
  <text x="770" y="182" class="type">Solid Cleaner</text>

  <!-- Row 3 - Former Architect -->
  <text x="20" y="202" class="rank">3</text>
  <text x="46" y="202" class="name">charlie</text>
  <text x="230" y="202" class="score">42</text>
  <text x="290" y="202" class="score">65</text>
  <text x="350" y="202" class="score">58</text>
  <text x="410" y="202" class="score">82</text>
  <text x="480" y="202" class="score">75</text>
  <text x="560" y="202" class="score">38</text>
  <text x="620" y="202" class="score">90</text>
  <text x="700" y="202" class="total-senior">58.2</text>
  <text x="770" y="202" class="type">Former Architect</text>

  <!-- Row 4 - Solid -->
  <text x="20" y="222" class="rank">4</text>
  <text x="46" y="222" class="name">diana</text>
  <text x="230" y="222" class="score">55</text>
  <text x="290" y="222" class="score">78</text>
  <text x="350" y="222" class="score">45</text>
  <text x="410" y="222" class="score">30</text>
  <text x="480" y="222" class="score">50</text>
  <text x="560" y="222" class="score">65</text>
  <text x="620" y="222" class="score">20</text>
  <text x="700" y="222" class="total-senior">47.3</text>
  <text x="770" y="222" class="type">Solid</text>

  <!-- Row 5 - Mass Producer -->
  <text x="20" y="242" class="rank">5</text>
  <text x="46" y="242" class="name">eve</text>
  <text x="230" y="242" class="score">100</text>
  <text x="290" y="242" class="score">45</text>
  <text x="350" y="242" class="score">12</text>
  <text x="410" y="242" class="score">5</text>
  <text x="480" y="242" class="score">25</text>
  <text x="560" y="242" class="score">8</text>
  <text x="620" y="242" class="score">15</text>
  <text x="700" y="242" class="total-low">30.5</text>
  <text x="770" y="242" class="type">Mass Producer</text>

  <!-- Row 6 - Drifter -->
  <text x="20" y="262" class="rank">6</text>
  <text x="46" y="262" class="name">frank</text>
  <text x="230" y="262" class="score">18</text>
  <text x="290" y="262" class="score">82</text>
  <text x="350" y="262" class="score">8</text>
  <text x="410" y="262" class="score">3</text>
  <text x="480" y="262" class="score">100</text>
  <text x="560" y="262" class="score">22</text>
  <text x="620" y="262" class="score">0</text>
  <text x="700" y="262" class="total-low">25.1</text>
  <text x="770" y="262" class="type">Drifter</text>

  <!-- Row 7 - Growing -->
  <text x="20" y="282" class="rank">7</text>
  <text x="46" y="282" class="name">grace</text>
  <text x="230" y="282" class="score">30</text>
  <text x="290" y="282" class="score">95</text>
  <text x="350" y="282" class="score">15</text>
  <text x="410" y="282" class="score">0</text>
  <text x="480" y="282" class="score">38</text>
  <text x="560" y="282" class="score">55</text>
  <text x="620" y="282" class="score">0</text>
  <text x="700" y="282" class="total-low">22.8</text>
  <text x="770" y="282" class="type">Growing</text>

  <!-- Row 8 - Junior -->
  <text x="20" y="302" class="rank">8</text>
  <text x="46" y="302" class="name">henry</text>
  <text x="230" y="302" class="score">12</text>
  <text x="290" y="302" class="score">70</text>
  <text x="350" y="302" class="score">5</text>
  <text x="410" y="302" class="score">0</text>
  <text x="480" y="302" class="score">12</text>
  <text x="560" y="302" class="score">30</text>
  <text x="620" y="302" class="score">0</text>
  <text x="700" y="302" class="total-junior">14.2</text>
  <text x="770" y="302" class="type">—</text>

  <!-- Bus Factor -->
  <text x="20" y="342" style="fill: #e06c75; font-weight: 700; font-size: 14px;">Bus Factor Risks:</text>

  <text x="20" y="366" class="header">Level</text>
  <text x="120" y="366" class="header">Module</text>
  <text x="380" y="366" class="header">Owner</text>
  <text x="520" y="366" class="header">Share</text>
  <line x1="20" y1="372" x2="600" y2="372" stroke="#3e4451" stroke-width="1"/>

  <text x="20" y="392" style="fill: #e06c75; font-weight: 700;">CRITICAL</text>
  <text x="120" y="392" class="score">app/di</text>
  <text x="380" y="392" class="name">alice</text>
  <text x="520" y="392" class="score">95%</text>

  <text x="20" y="412" style="fill: #e06c75; font-weight: 700;">CRITICAL</text>
  <text x="120" y="412" class="score">tests/testhelper</text>
  <text x="380" y="412" class="name">alice</text>
  <text x="520" y="412" class="score">92%</text>

  <text x="20" y="432" style="fill: #e5c07b;">HIGH</text>
  <text x="120" y="432" class="score">app/infrastructure</text>
  <text x="380" y="432" class="name">charlie</text>
  <text x="520" y="432" class="score">68%</text>

  <!-- Footer -->
  <text x="20" y="472" class="summary">Completed in 2m48s (12 repos total)</text>

  <!-- Score legend -->
  <text x="20" y="498" class="summary">  80-100  Irreplaceable core member: 1    60-79  Near-core: 1    40-59  Senior-level: 2    30-39  Mid: 1    20-29  Junior-Mid: 2    0-19  Junior: 1</text>
</svg>