<svg xmlns="http://www.w3.org/2000/svg" width="1120" height="540" viewBox="0 0 1120 540">
  <defs>
    <style>
      @import url('https://fonts.googleapis.com/css2?family=JetBrains+Mono:wght@400;700&amp;display=swap');
      text { font-family: 'JetBrains Mono', 'SF Mono', 'Menlo', monospace; font-size: 12px; }
      .header { fill: #56b6c2; font-weight: 700; }
      .rank { fill: #abb2bf; }
      .name { fill: #e5c07b; }
      .score { fill: #abb2bf; }
      .total-high { fill: #c678dd; font-weight: 700; }
      .total-mid { fill: #98c379; font-weight: 700; }
      .total-senior { fill: #e5c07b; }
      .total-low { fill: #abb2bf; }
      .total-junior { fill: #5c6370; }
      .type { fill: #61afef; }
      .conf { fill: #5c6370; }
      .active-yes { fill: #98c379; }
      .active-no { fill: #5c6370; }
      .domain-title { fill: #e06c75; font-weight: 700; font-size: 15px; }
      .summary { fill: #5c6370; font-size: 12px; }
      .prompt { fill: #98c379; font-size: 13px; }
      .cmd { fill: #abb2bf; font-size: 13px; }
    </style>
  </defs>

  <!-- Terminal background -->
  <rect width="1120" height="540" rx="10" fill="#282c34"/>

  <!-- Title bar -->
  <rect width="1120" height="32" rx="10" fill="#21252b"/>
  <rect y="22" width="1120" height="10" fill="#21252b"/>
  <circle cx="20" cy="16" r="6" fill="#e06c75"/>
  <circle cx="40" cy="16" r="6" fill="#e5c07b"/>
  <circle cx="60" cy="16" r="6" fill="#98c379"/>
  <text x="560" y="20" text-anchor="middle" fill="#5c6370" font-size="12">Terminal — eis analyze</text>

  <!-- Command line -->
  <text x="20" y="58" class="prompt">❯</text>
  <text x="36" y="58" class="cmd">eis analyze --config eis.yaml --recursive ~/workspace</text>

  <!-- Domain title -->
  <text x="20" y="88" class="domain-title">═══ Backend ═══</text>
  <text x="20" y="106" class="summary">Analyzed 12 repo(s), 10 engineers</text>

  <!-- Header -->
  <text x="20" y="136" class="header">#</text>
  <text x="40" y="136" class="header">Member</text>
  <text x="170" y="136" class="header">Active</text>
  <text x="224" y="136" class="header">Prod</text>
  <text x="268" y="136" class="header">Qual</text>
  <text x="312" y="136" class="header">Robust</text>
  <text x="368" y="136" class="header">Dormant</text>
  <text x="432" y="136" class="header">Design</text>
  <text x="490" y="136" class="header">Breadth</text>
  <text x="556" y="136" class="header">Debt</text>
  <text x="600" y="136" class="header">Indisp</text>
  <text x="656" y="136" class="header">Total</text>
  <text x="716" y="136" class="header">Role</text>
  <text x="860" y="136" class="header">Style</text>
  <text x="1000" y="136" class="header">State</text>

  <!-- Separator -->
  <line x1="20" y1="142" x2="1100" y2="142" stroke="#3e4451" stroke-width="1"/>

  <!-- Row 1 - Architect / Builder / Active -->
  <text x="20" y="162" class="rank">1</text>
  <text x="40" y="162" class="name">alice</text>
  <text x="186" y="162" class="active-yes">✓</text>
  <text x="224" y="162" class="score">100</text>
  <text x="268" y="162" class="score">64</text>
  <text x="312" y="162" class="score">100</text>
  <text x="368" y="162" class="score">100</text>
  <text x="432" y="162" class="score">100</text>
  <text x="490" y="162" class="score">91</text>
  <text x="556" y="162" class="score">79</text>
  <text x="600" y="162" class="score">100</text>
  <text x="656" y="162" class="total-high">92.4</text>
  <text x="716" y="162" class="type">Architect</text>
  <text x="790" y="162" class="conf">(1.00)</text>
  <text x="860" y="162" class="type">Builder</text>
  <text x="924" y="162" class="conf">(1.00)</text>
  <text x="1000" y="162" class="type">Active</text>
  <text x="1058" y="162" class="conf">(0.80)</text>

  <!-- Row 2 - Producer / Mass / Former -->
  <text x="20" y="182" class="rank">2</text>
  <text x="40" y="182" class="name">bob</text>
  <text x="186" y="182" class="active-no">—</text>
  <text x="224" y="182" class="score">93</text>
  <text x="268" y="182" class="score">74</text>
  <text x="312" y="182" class="score">22</text>
  <text x="368" y="182" class="score">24</text>
  <text x="432" y="182" class="score">47</text>
  <text x="490" y="182" class="score">91</text>
  <text x="556" y="182" class="score">20</text>
  <text x="600" y="182" class="score">76</text>
  <text x="656" y="182" class="total-senior">51.7</text>
  <text x="716" y="182" class="type">Producer</text>
  <text x="790" y="182" class="conf">(1.00)</text>
  <text x="860" y="182" class="type">Mass</text>
  <text x="904" y="182" class="conf">(0.65)</text>
  <text x="1000" y="182" class="type">Former</text>
  <text x="1058" y="182" class="conf">(0.65)</text>

  <!-- Row 3 - Anchor / Balanced / Active -->
  <text x="20" y="202" class="rank">3</text>
  <text x="40" y="202" class="name">charlie</text>
  <text x="186" y="202" class="active-yes">✓</text>
  <text x="224" y="202" class="score">52</text>
  <text x="268" y="202" class="score">76</text>
  <text x="312" y="202" class="score">33</text>
  <text x="368" y="202" class="score">35</text>
  <text x="432" y="202" class="score">12</text>
  <text x="490" y="202" class="score">64</text>
  <text x="556" y="202" class="score">50</text>
  <text x="600" y="202" class="score">9</text>
  <text x="656" y="202" class="total-senior">39.5</text>
  <text x="716" y="202" class="type">Anchor</text>
  <text x="778" y="202" class="conf">(0.90)</text>
  <text x="860" y="202" class="type">Balanced</text>
  <text x="936" y="202" class="conf">(0.30)</text>
  <text x="1000" y="202" class="type">Active</text>
  <text x="1058" y="202" class="conf">(0.80)</text>

  <!-- Row 4 - Anchor / Mass / — -->
  <text x="20" y="222" class="rank">4</text>
  <text x="40" y="222" class="name">diana</text>
  <text x="186" y="222" class="active-no">—</text>
  <text x="224" y="222" class="score">100</text>
  <text x="268" y="222" class="score">95</text>
  <text x="312" y="222" class="score">1</text>
  <text x="368" y="222" class="score">2</text>
  <text x="432" y="222" class="score">2</text>
  <text x="490" y="222" class="score">36</text>
  <text x="556" y="222" class="score">0</text>
  <text x="600" y="222" class="score">0</text>
  <text x="656" y="222" class="total-low">28.9</text>
  <text x="716" y="222" class="type">Anchor</text>
  <text x="778" y="222" class="conf">(1.00)</text>
  <text x="860" y="222" class="type">Mass</text>
  <text x="904" y="222" class="conf">(1.00)</text>
  <text x="1000" y="222" class="conf">—</text>

  <!-- Row 5 - — / Spread / Silent -->
  <text x="20" y="242" class="rank">5</text>
  <text x="40" y="242" class="name">eve</text>
  <text x="186" y="242" class="active-no">—</text>
  <text x="224" y="242" class="score">10</text>
  <text x="268" y="242" class="score">97</text>
  <text x="312" y="242" class="score">4</text>
  <text x="368" y="242" class="score">3</text>
  <text x="432" y="242" class="score">9</text>
  <text x="490" y="242" class="score">100</text>
  <text x="556" y="242" class="score">8</text>
  <text x="600" y="242" class="score">31</text>
  <text x="656" y="242" class="total-low">25.4</text>
  <text x="716" y="242" class="conf">—</text>
  <text x="860" y="242" class="type">Spread</text>
  <text x="920" y="242" class="conf">(1.00)</text>
  <text x="1000" y="242" class="type">Silent</text>
  <text x="1054" y="242" class="conf">(1.00)</text>

  <!-- Row 6 - — / Spread / Growing -->
  <text x="20" y="262" class="rank">6</text>
  <text x="40" y="262" class="name">frank</text>
  <text x="186" y="262" class="active-yes">✓</text>
  <text x="224" y="262" class="score">17</text>
  <text x="268" y="262" class="score">70</text>
  <text x="312" y="262" class="score">1</text>
  <text x="368" y="262" class="score">1</text>
  <text x="432" y="262" class="score">0</text>
  <text x="490" y="262" class="score">64</text>
  <text x="556" y="262" class="score">42</text>
  <text x="600" y="262" class="score">0</text>
  <text x="656" y="262" class="total-low">22.3</text>
  <text x="716" y="262" class="conf">—</text>
  <text x="860" y="262" class="type">Spread</text>
  <text x="920" y="262" class="conf">(0.59)</text>
  <text x="1000" y="262" class="type">Growing</text>
  <text x="1068" y="262" class="conf">(0.75)</text>

  <!-- Row 7 - — / — / Active -->
  <text x="20" y="282" class="rank">7</text>
  <text x="40" y="282" class="name">grace</text>
  <text x="186" y="282" class="active-yes">✓</text>
  <text x="224" y="282" class="score">5</text>
  <text x="268" y="282" class="score">64</text>
  <text x="312" y="282" class="score">0</text>
  <text x="368" y="282" class="score">1</text>
  <text x="432" y="282" class="score">0</text>
  <text x="490" y="282" class="score">27</text>
  <text x="556" y="282" class="score">36</text>
  <text x="600" y="282" class="score">0</text>
  <text x="656" y="282" class="total-junior">15.3</text>
  <text x="716" y="282" class="conf">—</text>
  <text x="860" y="282" class="conf">—</text>
  <text x="1000" y="282" class="type">Active</text>
  <text x="1058" y="282" class="conf">(0.80)</text>

  <!-- Row 8 - — / — / Growing -->
  <text x="20" y="302" class="rank">8</text>
  <text x="40" y="302" class="name">henry</text>
  <text x="186" y="302" class="active-no">—</text>
  <text x="224" y="302" class="score">0</text>
  <text x="268" y="302" class="score">61</text>
  <text x="312" y="302" class="score">0</text>
  <text x="368" y="302" class="score">0</text>
  <text x="432" y="302" class="score">0</text>
  <text x="490" y="302" class="score">9</text>
  <text x="556" y="302" class="score">0</text>
  <text x="600" y="302" class="score">0</text>
  <text x="656" y="302" class="total-junior">5.6</text>
  <text x="716" y="302" class="conf">—</text>
  <text x="860" y="302" class="conf">—</text>
  <text x="1000" y="302" class="type">Growing</text>
  <text x="1068" y="302" class="conf">(0.53)</text>

  <!-- Bus Factor -->
  <text x="20" y="342" style="fill: #e06c75; font-weight: 700; font-size: 14px;">Bus Factor Risks:</text>

  <text x="20" y="366" class="header">Level</text>
  <text x="120" y="366" class="header">Module</text>
  <text x="380" y="366" class="header">Owner</text>
  <text x="520" y="366" class="header">Share</text>
  <line x1="20" y1="372" x2="600" y2="372" stroke="#3e4451" stroke-width="1"/>

  <text x="20" y="392" style="fill: #e06c75; font-weight: 700;">CRITICAL</text>
  <text x="120" y="392" class="score">app/di</text>
  <text x="380" y="392" class="name">alice</text>
  <text x="520" y="392" class="score">93%</text>

  <text x="20" y="412" style="fill: #e06c75; font-weight: 700;">CRITICAL</text>
  <text x="120" y="412" class="score">tests/testhelper</text>
  <text x="380" y="412" class="name">alice</text>
  <text x="520" y="412" class="score">96%</text>

  <text x="20" y="432" style="fill: #e5c07b;">HIGH</text>
  <text x="120" y="432" class="score">app/common</text>
  <text x="380" y="432" class="name">bob</text>
  <text x="520" y="432" class="score">68%</text>

  <!-- Footer -->
  <text x="20" y="472" class="summary">Completed in 2m37s (12 repos total)</text>

  <!-- Score legend -->
  <text x="20" y="498" class="summary">  80-100  Irreplaceable core member: 1    40-59  Senior-level: 1    20-29  Junior-Mid: 3    0-19  Junior: 3</text>

  <!-- Version -->
  <text x="20" y="520" class="summary">eis v0.9.1 — github.com/machuz/engineering-impact-score</text>
</svg>
